<svg  style="display:none">
<symbol id="add-square" viewBox="0 0 24 24">
  <path
    d="M16 12.75H8C7.59 12.75 7.25 12.41 7.25 12C7.25 11.59 7.59 11.25 8 11.25H16C16.41 11.25 16.75 11.59 16.75 12C16.75 12.41 16.41 12.75 16 12.75Z" />
  <path
    d="M12 16.75C11.59 16.75 11.25 16.41 11.25 16V8C11.25 7.59 11.59 7.25 12 7.25C12.41 7.25 12.75 7.59 12.75 8V16C12.75 16.41 12.41 16.75 12 16.75Z" />
  <path
    d="M15 22.75H9C3.57 22.75 1.25 20.43 1.25 15V9C1.25 3.57 3.57 1.25 9 1.25H15C20.43 1.25 22.75 3.57 22.75 9V15C22.75 20.43 20.43 22.75 15 22.75ZM9 2.75C4.39 2.75 2.75 4.39 2.75 9V15C2.75 19.61 4.39 21.25 9 21.25H15C19.61 21.25 21.25 19.61 21.25 15V9C21.25 4.39 19.61 2.75 15 2.75H9Z" />
</symbol>
<symbol id="add" viewBox="0 0 24 24">
  <path
    d="M18 12.75H6C5.59 12.75 5.25 12.41 5.25 12C5.25 11.59 5.59 11.25 6 11.25H18C18.41 11.25 18.75 11.59 18.75 12C18.75 12.41 18.41 12.75 18 12.75Z" />
  <path
    d="M12 18.75C11.59 18.75 11.25 18.41 11.25 18V6C11.25 5.59 11.59 5.25 12 5.25C12.41 5.25 12.75 5.59 12.75 6V18C12.75 18.41 12.41 18.75 12 18.75Z" />
</symbol>
<symbol id="app" viewBox="0 0 512 512">


  <path
    d="M113,0L113,0c62.408,0,113,50.592,113,113v0c0,62.408-50.592,113-113,113h0C50.592,226,0,175.408,0,113v0   C0,50.592,50.592,0,113,0z" />

  <path
    d="M399,0L399,0c62.408,0,113,50.592,113,113v0c0,62.408-50.592,113-113,113h0c-62.408,0-113-50.592-113-113v0   C286,50.592,336.592,0,399,0z" />

  <path
    d="M113,286L113,286c62.408,0,113,50.592,113,113v0c0,62.408-50.592,113-113,113h0C50.592,512,0,461.408,0,399v0   C0,336.592,50.592,286,113,286z" />

  <path
    d="M399,286L399,286c62.408,0,113,50.592,113,113v0c0,62.408-50.592,113-113,113h0c-62.408,0-113-50.592-113-113v0   C286,336.592,336.592,286,399,286z" />

</symbol>
<symbol id="arrow-square-up" viewBox="0 0 24 24">
  <path
    d="M15 22.75H9C3.57 22.75 1.25 20.43 1.25 15V9C1.25 3.57 3.57 1.25 9 1.25H15C20.43 1.25 22.75 3.57 22.75 9V15C22.75 20.43 20.43 22.75 15 22.75ZM9 2.75C4.39 2.75 2.75 4.39 2.75 9V15C2.75 19.61 4.39 21.25 9 21.25H15C19.61 21.25 21.25 19.61 21.25 15V9C21.25 4.39 19.61 2.75 15 2.75H9Z" />
  <path
    d="M15.5302 14.2101C15.3402 14.2101 15.1502 14.1401 15.0002 13.9901L12.0002 10.9901L9.00016 13.9901C8.71016 14.2801 8.23016 14.2801 7.94016 13.9901C7.65016 13.7001 7.65016 13.2201 7.94016 12.9301L11.4702 9.40012C11.7602 9.11012 12.2402 9.11012 12.5302 9.40012L16.0602 12.9301C16.3502 13.2201 16.3502 13.7001 16.0602 13.9901C15.9102 14.1401 15.7202 14.2101 15.5302 14.2101Z" />

</symbol>
<symbol id="arrow-up-1" viewBox="0 0 24 24">
  <path
    d="M12 22.75C6.07 22.75 1.25 17.93 1.25 12C1.25 6.07 6.07 1.25 12 1.25C17.93 1.25 22.75 6.07 22.75 12C22.75 17.93 17.93 22.75 12 22.75ZM12 2.75C6.9 2.75 2.75 6.9 2.75 12C2.75 17.1 6.9 21.25 12 21.25C17.1 21.25 21.25 17.1 21.25 12C21.25 6.9 17.1 2.75 12 2.75Z" />
  <path
    d="M12 16.25C11.59 16.25 11.25 15.91 11.25 15.5V9.5C11.25 9.09 11.59 8.75 12 8.75C12.41 8.75 12.75 9.09 12.75 9.5V15.5C12.75 15.91 12.41 16.25 12 16.25Z" />
  <path
    d="M14.9995 12.2499C14.8095 12.2499 14.6195 12.1799 14.4695 12.0299L11.9995 9.55994L9.52945 12.0299C9.23945 12.3199 8.75945 12.3199 8.46945 12.0299C8.17945 11.7399 8.17945 11.2599 8.46945 10.9699L11.4695 7.96994C11.7595 7.67994 12.2395 7.67994 12.5295 7.96994L15.5295 10.9699C15.8195 11.2599 15.8195 11.7399 15.5295 12.0299C15.3795 12.1799 15.1895 12.2499 14.9995 12.2499Z" />

</symbol>
<symbol id="arrow-up-2" viewBox="0 0 24 24">
  <path
    d="M19.9195 15.8001C19.7295 15.8001 19.5395 15.7301 19.3895 15.5801L12.8695 9.06008C12.3895 8.58008 11.6095 8.58008 11.1295 9.06008L4.60953 15.5801C4.31953 15.8701 3.83953 15.8701 3.54953 15.5801C3.25953 15.2901 3.25953 14.8101 3.54953 14.5201L10.0695 8.00008C11.1295 6.94008 12.8595 6.94008 13.9295 8.00008L20.4495 14.5201C20.7395 14.8101 20.7395 15.2901 20.4495 15.5801C20.2995 15.7201 20.1095 15.8001 19.9195 15.8001Z" />

</symbol>
<symbol id="arrow-up-3" viewBox="0 0 24 24">
  <path
    d="M18.0691 10.3199C17.8791 10.3199 17.6891 10.2499 17.5391 10.0999L11.9991 4.55994L6.45914 10.0999C6.16914 10.3899 5.68914 10.3899 5.39914 10.0999C5.10914 9.80994 5.10914 9.32994 5.39914 9.03994L11.4691 2.96994C11.7591 2.67994 12.2391 2.67994 12.5291 2.96994L18.5991 9.03994C18.8891 9.32994 18.8891 9.80994 18.5991 10.0999C18.4591 10.2499 18.2591 10.3199 18.0691 10.3199Z" />
  <path
    d="M12 21.2499C11.59 21.2499 11.25 20.9099 11.25 20.4999V3.66992C11.25 3.25992 11.59 2.91992 12 2.91992C12.41 2.91992 12.75 3.25992 12.75 3.66992V20.4999C12.75 20.9099 12.41 21.2499 12 21.2499Z" />

</symbol>
<symbol id="attachment-2" viewBox="-8 0 32 32">
    <g transform="translate(-212.000000, -151.000000)">
        <path
            d="M226,155 L226,175 C226,178.313 223.313,181 220,181 C216.687,181 214,178.313 214,175 L214,157 C214,154.791 215.791,153 218,153 C220.209,153 222,154.791 222,157 L222,175 C222,176.104 221.104,177 220,177 C218.896,177 218,176.104 218,175 L218,159 L216,159 L216,175 C216,177.209 217.791,179 220,179 C222.209,179 224,177.209 224,175 L224,157 C224,153.687 221.313,151 218,151 C214.687,151 212,153.687 212,157 L212,176 C212.493,179.945 215.921,183 220,183 C224.079,183 227.507,179.945 228,176 L228,155 L226,155">
        </path>
    </g>

</symbol>
<symbol id="attachment" viewBox="0 0 28 28">
    <g transform="translate(-260.000000, -156.000000)" style="stroke: none">
        <path
            d="M286.562,166.181 L272.325,180.26 C269.966,182.593 266.141,182.593 263.782,180.26 C261.423,177.928 261.423,174.146 263.782,171.813 L276.596,159.141 C278.168,157.586 280.718,157.586 282.291,159.141 C283.863,160.696 283.863,163.218 282.291,164.772 L269.477,177.444 C268.691,178.222 267.416,178.222 266.629,177.444 C265.843,176.667 265.843,175.406 266.629,174.628 L278.02,163.365 L276.596,161.957 L265.206,173.221 C263.633,174.775 263.633,177.297 265.206,178.853 C266.778,180.407 269.328,180.407 270.901,178.852 L283.714,166.181 C286.073,163.849 286.074,160.065 283.715,157.733 C281.355,155.4 277.531,155.4 275.172,157.733 L261.646,171.108 L261.696,171.157 C259.238,174.281 259.455,178.797 262.358,181.668 C265.262,184.539 269.828,184.754 272.987,182.323 L273.036,182.372 L287.986,167.589 L286.562,166.181">
        </path>
    </g>

</symbol>
<symbol id="blur" viewBox="0 0 19 20">
  <path
    d="M3.5 11C2.95 11 2.5 11.45 2.5 12C2.5 12.55 2.95 13 3.5 13C4.05 13 4.5 12.55 4.5 12C4.5 11.45 4.05 11 3.5 11ZM3.5 15C2.95 15 2.5 15.45 2.5 16C2.5 16.55 2.95 17 3.5 17C4.05 17 4.5 16.55 4.5 16C4.5 15.45 4.05 15 3.5 15ZM3.5 7C2.95 7 2.5 7.45 2.5 8C2.5 8.55 2.95 9 3.5 9C4.05 9 4.5 8.55 4.5 8C4.5 7.45 4.05 7 3.5 7ZM0.5 7.5C0.22 7.5 0 7.72 0 8C0 8.28 0.22 8.5 0.5 8.5C0.78 8.5 1 8.28 1 8C1 7.72 0.78 7.5 0.5 7.5ZM3.5 3C2.95 3 2.5 3.45 2.5 4C2.5 4.55 2.95 5 3.5 5C4.05 5 4.5 4.55 4.5 4C4.5 3.45 4.05 3 3.5 3ZM18.5 8.5C18.78 8.5 19 8.28 19 8C19 7.72 18.78 7.5 18.5 7.5C18.22 7.5 18 7.72 18 8C18 8.28 18.22 8.5 18.5 8.5ZM11.5 5C12.05 5 12.5 4.55 12.5 4C12.5 3.45 12.05 3 11.5 3C10.95 3 10.5 3.45 10.5 4C10.5 4.55 10.95 5 11.5 5ZM11.5 1.5C11.78 1.5 12 1.28 12 1C12 0.72 11.78 0.5 11.5 0.5C11.22 0.5 11 0.72 11 1C11 1.28 11.22 1.5 11.5 1.5ZM0.5 11.5C0.22 11.5 0 11.72 0 12C0 12.28 0.22 12.5 0.5 12.5C0.78 12.5 1 12.28 1 12C1 11.72 0.78 11.5 0.5 11.5ZM7.5 18.5C7.22 18.5 7 18.72 7 19C7 19.28 7.22 19.5 7.5 19.5C7.78 19.5 8 19.28 8 19C8 18.72 7.78 18.5 7.5 18.5ZM7.5 1.5C7.78 1.5 8 1.28 8 1C8 0.72 7.78 0.5 7.5 0.5C7.22 0.5 7 0.72 7 1C7 1.28 7.22 1.5 7.5 1.5ZM7.5 5C8.05 5 8.5 4.55 8.5 4C8.5 3.45 8.05 3 7.5 3C6.95 3 6.5 3.45 6.5 4C6.5 4.55 6.95 5 7.5 5ZM7.5 10.5C6.67 10.5 6 11.17 6 12C6 12.83 6.67 13.5 7.5 13.5C8.33 13.5 9 12.83 9 12C9 11.17 8.33 10.5 7.5 10.5ZM15.5 11C14.95 11 14.5 11.45 14.5 12C14.5 12.55 14.95 13 15.5 13C16.05 13 16.5 12.55 16.5 12C16.5 11.45 16.05 11 15.5 11ZM15.5 15C14.95 15 14.5 15.45 14.5 16C14.5 16.55 14.95 17 15.5 17C16.05 17 16.5 16.55 16.5 16C16.5 15.45 16.05 15 15.5 15ZM15.5 7C14.95 7 14.5 7.45 14.5 8C14.5 8.55 14.95 9 15.5 9C16.05 9 16.5 8.55 16.5 8C16.5 7.45 16.05 7 15.5 7ZM15.5 3C14.95 3 14.5 3.45 14.5 4C14.5 4.55 14.95 5 15.5 5C16.05 5 16.5 4.55 16.5 4C16.5 3.45 16.05 3 15.5 3ZM18.5 11.5C18.22 11.5 18 11.72 18 12C18 12.28 18.22 12.5 18.5 12.5C18.78 12.5 19 12.28 19 12C19 11.72 18.78 11.5 18.5 11.5ZM11.5 15C10.95 15 10.5 15.45 10.5 16C10.5 16.55 10.95 17 11.5 17C12.05 17 12.5 16.55 12.5 16C12.5 15.45 12.05 15 11.5 15ZM11.5 18.5C11.22 18.5 11 18.72 11 19C11 19.28 11.22 19.5 11.5 19.5C11.78 19.5 12 19.28 12 19C12 18.72 11.78 18.5 11.5 18.5ZM7.5 6.5C6.67 6.5 6 7.17 6 8C6 8.83 6.67 9.5 7.5 9.5C8.33 9.5 9 8.83 9 8C9 7.17 8.33 6.5 7.5 6.5ZM7.5 15C6.95 15 6.5 15.45 6.5 16C6.5 16.55 6.95 17 7.5 17C8.05 17 8.5 16.55 8.5 16C8.5 15.45 8.05 15 7.5 15ZM11.5 10.5C10.67 10.5 10 11.17 10 12C10 12.83 10.67 13.5 11.5 13.5C12.33 13.5 13 12.83 13 12C13 11.17 12.33 10.5 11.5 10.5ZM11.5 6.5C10.67 6.5 10 7.17 10 8C10 8.83 10.67 9.5 11.5 9.5C12.33 9.5 13 8.83 13 8C13 7.17 12.33 6.5 11.5 6.5Z" />
</symbol>
<symbol id="book" viewBox="0 0 24 24">
  <path
    d="M12 22.08C11.7 22.08 11.4 22.01 11.15 21.87C9.28 20.85 5.99 19.77 3.93 19.5L3.64 19.46C2.33 19.3 1.25 18.07 1.25 16.74V4.66001C1.25 3.87001 1.56 3.15001 2.13 2.63001C2.7 2.11001 3.44 1.86001 4.22 1.93001C6.42 2.10001 9.74 3.20001 11.62 4.38001L11.86 4.52001C11.93 4.56001 12.08 4.56001 12.14 4.53001L12.3 4.43001C14.18 3.25001 17.5 2.13001 19.71 1.94001C19.73 1.94001 19.81 1.94001 19.83 1.94001C20.56 1.87001 21.31 2.13001 21.87 2.65001C22.44 3.17001 22.75 3.89001 22.75 4.68001V16.75C22.75 18.09 21.67 19.31 20.35 19.47L20.02 19.51C17.96 19.78 14.66 20.87 12.83 21.88C12.59 22.02 12.3 22.08 12 22.08ZM3.98 3.42001C3.66 3.42001 3.37 3.53001 3.14 3.74001C2.89 3.97001 2.75 4.30001 2.75 4.66001V16.74C2.75 17.33 3.26 17.9 3.83 17.98L4.13 18.02C6.38 18.32 9.83 19.45 11.83 20.54C11.92 20.58 12.05 20.59 12.1 20.57C14.1 19.46 17.57 18.32 19.83 18.02L20.17 17.98C20.74 17.91 21.25 17.33 21.25 16.74V4.67001C21.25 4.30001 21.11 3.98001 20.86 3.74001C20.6 3.51001 20.27 3.40001 19.9 3.42001C19.88 3.42001 19.8 3.42001 19.78 3.42001C17.87 3.59001 14.79 4.62001 13.11 5.67001L12.95 5.78001C12.4 6.12001 11.62 6.12001 11.09 5.79001L10.85 5.65001C9.14 4.60001 6.06 3.58001 4.1 3.42001C4.06 3.42001 4.02 3.42001 3.98 3.42001Z" />
  <path
    d="M12 21.24C11.59 21.24 11.25 20.9 11.25 20.49V5.48999C11.25 5.07999 11.59 4.73999 12 4.73999C12.41 4.73999 12.75 5.07999 12.75 5.48999V20.49C12.75 20.91 12.41 21.24 12 21.24Z" />
  <path
    d="M7.75 9.23999H5.5C5.09 9.23999 4.75 8.89999 4.75 8.48999C4.75 8.07999 5.09 7.73999 5.5 7.73999H7.75C8.16 7.73999 8.5 8.07999 8.5 8.48999C8.5 8.89999 8.16 9.23999 7.75 9.23999Z" />
  <path
    d="M8.5 12.24H5.5C5.09 12.24 4.75 11.9 4.75 11.49C4.75 11.08 5.09 10.74 5.5 10.74H8.5C8.91 10.74 9.25 11.08 9.25 11.49C9.25 11.9 8.91 12.24 8.5 12.24Z" />
</symbol>
<symbol id="bookmarks" viewBox="0 0 24 24">
  <path
    d="M3.30023 22.7501C2.94023 22.7501 2.59022 22.6601 2.29022 22.4801C1.62022 22.0901 1.24023 21.3101 1.24023 20.3401V8.98013C1.24023 6.85013 2.97022 5.12012 5.10022 5.12012H12.8802C15.0102 5.12012 16.7402 6.85013 16.7402 8.98013V20.3401C16.7402 21.3101 16.3602 22.0801 15.6902 22.4801C15.0202 22.8701 14.1602 22.8301 13.3102 22.3601L9.38025 20.1701C9.19025 20.0601 8.79022 20.0601 8.60022 20.1701L4.67023 22.3601C4.21023 22.6201 3.74023 22.7501 3.30023 22.7501ZM5.11023 6.63013C3.81023 6.63013 2.75024 7.69011 2.75024 8.99011V20.3501C2.75024 20.7601 2.87024 21.0801 3.06024 21.1901C3.25024 21.3001 3.59026 21.2501 3.95026 21.0501L7.88025 18.8601C8.52025 18.5101 9.48024 18.5101 10.1202 18.8601L14.0502 21.0501C14.4102 21.2501 14.7402 21.3001 14.9402 21.1901C15.1302 21.0801 15.2502 20.7601 15.2502 20.3501V8.99011C15.2502 7.69011 14.1903 6.63013 12.8903 6.63013H5.11023Z" />
  <path
    d="M14.69 22.7501C14.25 22.7501 13.79 22.6201 13.32 22.3701L9.39001 20.1801C9.20001 20.0801 8.78998 20.0801 8.59998 20.1801L4.67999 22.3701C3.82999 22.8401 2.95999 22.8801 2.29999 22.4901C1.62999 22.1001 1.25 21.3201 1.25 20.3601V9.00012C1.25 6.87012 2.97999 5.14014 5.10999 5.14014H12.89C15.02 5.14014 16.75 6.87012 16.75 9.00012V20.3601C16.75 21.3201 16.37 22.1001 15.7 22.4901C15.4 22.6601 15.06 22.7501 14.69 22.7501ZM9 18.6001C9.4 18.6001 9.79 18.6901 10.12 18.8701L14.05 21.0601C14.41 21.2601 14.75 21.3101 14.94 21.1901C15.13 21.0801 15.25 20.7601 15.25 20.3501V8.99011C15.25 7.69011 14.19 6.63013 12.89 6.63013H5.10999C3.80999 6.63013 2.75 7.69011 2.75 8.99011V20.3501C2.75 20.7601 2.87 21.0801 3.06 21.1901C3.25 21.3001 3.59001 21.2501 3.95001 21.0501L7.88 18.8601C8.20001 18.6901 8.6 18.6001 9 18.6001Z" />
  <path
    d="M20.69 18.8698C20.25 18.8698 19.79 18.7397 19.32 18.4897L15.63 16.4297C15.39 16.2997 15.25 16.0498 15.25 15.7798V8.99976C15.25 7.69976 14.19 6.63977 12.89 6.63977H8C7.59 6.63977 7.25 6.29977 7.25 5.88977V5.11975C7.25 2.98975 8.97999 1.25977 11.11 1.25977H18.89C21.02 1.25977 22.75 2.98975 22.75 5.11975V16.4798C22.75 17.4398 22.37 18.2197 21.7 18.6097C21.4 18.7797 21.06 18.8698 20.69 18.8698ZM16.75 15.3297L20.05 17.1797C20.41 17.3797 20.74 17.4298 20.94 17.3098C21.14 17.1898 21.25 16.8798 21.25 16.4698V5.10974C21.25 3.80974 20.19 2.74976 18.89 2.74976H11.11C9.80999 2.74976 8.75 3.80974 8.75 5.10974V5.12976H12.89C15.02 5.12976 16.75 6.85975 16.75 8.98975V15.3297Z" />
</symbol>
<symbol id="business-bag" viewBox="0 0 512 512">
	<path d="M470.537,137.504H41.471C18.565,137.504,0,156.077,0,178.976v56.797l211.507,44.607V252.1h87.772v28.28
		L512,235.489v-56.513C512,156.077,493.435,137.504,470.537,137.504z" />
	<path d="M299.279,369.129h-87.772v-57.017L14.633,273.012V439.81c0,22.898,18.557,41.47,41.455,41.47h399.824
		c22.898,0,41.463-18.572,41.463-41.47V272.721l-198.096,39.39V369.129z" />
	<rect x="233.452" y="274.044" width="43.882" height="73.132" />
	<path d="M193.786,72.206c0.008-1.703,0.638-3.057,1.75-4.208c1.127-1.103,2.49-1.718,4.176-1.734h112.577
		c1.686,0.016,3.058,0.631,4.185,1.734c1.103,1.151,1.726,2.505,1.733,4.208v29.627h35.546V72.206
		c0.008-11.41-4.665-21.875-12.143-29.329c-7.446-7.485-17.934-12.166-29.321-12.158H199.712
		c-11.394-0.008-21.875,4.673-29.32,12.158c-7.47,7.454-12.158,17.918-12.135,29.329v29.627h35.529V72.206z" />

</symbol>
<symbol id="business-process" viewBox="0 0 36 36">
    <polygon
        points="9.8 18.8 26.2 18.8 26.2 21.88 27.8 21.88 27.8 17.2 18.8 17.2 18.8 14 17.2 14 17.2 17.2 8.2 17.2 8.2 21.88 9.8 21.88 9.8 18.8">
    </polygon>
    <rect x="2" y="23" width="14" height="10" rx="2" ry="2" class="clr-i-solid clr-i-solid-path-2"></rect>
    <rect x="20" y="23" width="14" height="10" rx="2" ry="2" class="clr-i-solid clr-i-solid-path-3"></rect>
    <rect x="11" y="3" width="14" height="10" rx="2" ry="2" class="clr-i-solid clr-i-solid-path-4"></rect>
</symbol>
<symbol id="call" viewBox="0 0 24 24">
  <path
    d="M17.45 22.75C16.32 22.75 15.13 22.48 13.9 21.96C12.7 21.45 11.49 20.75 10.31 19.9C9.14 19.04 8.01 18.08 6.94 17.03C5.88 15.96 4.92 14.83 4.07 13.67C3.21 12.47 2.52 11.27 2.03 10.11C1.51 8.87 1.25 7.67 1.25 6.54C1.25 5.76 1.39 5.02 1.66 4.33C1.94 3.62 2.39 2.96 3 2.39C3.77 1.63 4.65 1.25 5.59 1.25C5.98 1.25 6.38 1.34 6.72 1.5C7.11 1.68 7.44 1.95 7.68 2.31L10 5.58C10.21 5.87 10.37 6.15 10.48 6.43C10.61 6.73 10.68 7.03 10.68 7.32C10.68 7.7 10.57 8.07 10.36 8.42C10.21 8.69 9.98 8.98 9.69 9.27L9.01 9.98C9.02 10.01 9.03 10.03 9.04 10.05C9.16 10.26 9.4 10.62 9.86 11.16C10.35 11.72 10.81 12.23 11.27 12.7C11.86 13.28 12.35 13.74 12.81 14.12C13.38 14.6 13.75 14.84 13.97 14.95L13.95 15L14.68 14.28C14.99 13.97 15.29 13.74 15.58 13.59C16.13 13.25 16.83 13.19 17.53 13.48C17.79 13.59 18.07 13.74 18.37 13.95L21.69 16.31C22.06 16.56 22.33 16.88 22.49 17.26C22.64 17.64 22.71 17.99 22.71 18.34C22.71 18.82 22.6 19.3 22.39 19.75C22.18 20.2 21.92 20.59 21.59 20.95C21.02 21.58 20.4 22.03 19.68 22.32C18.99 22.6 18.24 22.75 17.45 22.75ZM5.59 2.75C5.04 2.75 4.53 2.99 4.04 3.47C3.58 3.9 3.26 4.37 3.06 4.88C2.85 5.4 2.75 5.95 2.75 6.54C2.75 7.47 2.97 8.48 3.41 9.52C3.86 10.58 4.49 11.68 5.29 12.78C6.09 13.88 7 14.95 8 15.96C9 16.95 10.08 17.87 11.19 18.68C12.27 19.47 13.38 20.11 14.48 20.57C16.19 21.3 17.79 21.47 19.11 20.92C19.62 20.71 20.07 20.39 20.48 19.93C20.71 19.68 20.89 19.41 21.04 19.09C21.16 18.84 21.22 18.58 21.22 18.32C21.22 18.16 21.19 18 21.11 17.82C21.08 17.76 21.02 17.65 20.83 17.52L17.51 15.16C17.31 15.02 17.13 14.92 16.96 14.85C16.74 14.76 16.65 14.67 16.31 14.88C16.11 14.98 15.93 15.13 15.73 15.33L14.97 16.08C14.58 16.46 13.98 16.55 13.52 16.38L13.25 16.26C12.84 16.04 12.36 15.7 11.83 15.25C11.35 14.84 10.83 14.36 10.2 13.74C9.71 13.24 9.22 12.71 8.71 12.12C8.24 11.57 7.9 11.1 7.69 10.71L7.57 10.41C7.51 10.18 7.49 10.05 7.49 9.91C7.49 9.55 7.62 9.23 7.87 8.98L8.62 8.2C8.82 8 8.97 7.81 9.07 7.64C9.15 7.51 9.18 7.4 9.18 7.3C9.18 7.22 9.15 7.1 9.1 6.98C9.03 6.82 8.92 6.64 8.78 6.45L6.46 3.17C6.36 3.03 6.24 2.93 6.09 2.86C5.93 2.79 5.76 2.75 5.59 2.75ZM13.95 15.01L13.79 15.69L14.06 14.99C14.01 14.98 13.97 14.99 13.95 15.01Z" />

</symbol>
<symbol id="check-all" viewBox="0 0 24 24">
  <path style="fill: none;"
    d="M7 12L11.9497 16.9497L22.5572 6.34326M2.0498 12.0503L6.99955 17M17.606 6.39355L12.3027 11.6969" stroke-width="2"
    stroke-linecap="round" stroke-linejoin="round" />

</symbol>
<symbol id="check" viewBox="0 0 24 24">
  <path style="fill: none;" d="M4 12L8.94975 16.9497L19.5572 6.34326" stroke-width="2" stroke-linecap="round"
    stroke-linejoin="round" />

</symbol>
<symbol id="chevron-down" viewBox="0 0 24 24">
  <path
    d="M11.9995 16.8001C11.2995 16.8001 10.5995 16.5301 10.0695 16.0001L3.54953 9.48014C3.25953 9.19014 3.25953 8.71014 3.54953 8.42014C3.83953 8.13014 4.31953 8.13014 4.60953 8.42014L11.1295 14.9401C11.6095 15.4201 12.3895 15.4201 12.8695 14.9401L19.3895 8.42014C19.6795 8.13014 20.1595 8.13014 20.4495 8.42014C20.7395 8.71014 20.7395 9.19014 20.4495 9.48014L13.9295 16.0001C13.3995 16.5301 12.6995 16.8001 11.9995 16.8001Z" />
</symbol>
<symbol id="chevron-left" viewBox="0 0 24 24">
  <path
    d="M14.9993 20.67C14.8093 20.67 14.6193 20.6 14.4693 20.45L7.9493 13.93C6.8893 12.87 6.8893 11.13 7.9493 10.07L14.4693 3.55002C14.7593 3.26002 15.2393 3.26002 15.5293 3.55002C15.8193 3.84002 15.8193 4.32002 15.5293 4.61002L9.0093 11.13C8.5293 11.61 8.5293 12.39 9.0093 12.87L15.5293 19.39C15.8193 19.68 15.8193 20.16 15.5293 20.45C15.3793 20.59 15.1893 20.67 14.9993 20.67Z" />
</symbol>
<symbol id="chevron-right" viewBox="0 0 24 24">
  <path
    d="M8.90961 20.67C8.71961 20.67 8.52961 20.6 8.37961 20.45C8.08961 20.16 8.08961 19.68 8.37961 19.39L14.8996 12.87C15.3796 12.39 15.3796 11.61 14.8996 11.13L8.37961 4.61002C8.08961 4.32002 8.08961 3.84002 8.37961 3.55002C8.66961 3.26002 9.14961 3.26002 9.43961 3.55002L15.9596 10.07C16.4696 10.58 16.7596 11.27 16.7596 12C16.7596 12.73 16.4796 13.42 15.9596 13.93L9.43961 20.45C9.28961 20.59 9.09961 20.67 8.90961 20.67Z" />
</symbol>
<symbol id="chevron-up" viewBox="0 0 24 24">
  <path
    d="M19.9195 15.8001C19.7295 15.8001 19.5395 15.7301 19.3895 15.5801L12.8695 9.06008C12.3895 8.58008 11.6095 8.58008 11.1295 9.06008L4.60953 15.5801C4.31953 15.8701 3.83953 15.8701 3.54953 15.5801C3.25953 15.2901 3.25953 14.8101 3.54953 14.5201L10.0695 8.00008C11.1295 6.94008 12.8595 6.94008 13.9295 8.00008L20.4495 14.5201C20.7395 14.8101 20.7395 15.2901 20.4495 15.5801C20.2995 15.7201 20.1095 15.8001 19.9195 15.8001Z" />
</symbol>
<symbol id="circle" viewBox="0 0 16 16">
  <circle cx="8" cy="8" r="4" />
</symbol>
<symbol id="close" viewBox="-0.5 0 25 25">
  <path d="M3 21.32L21 3.32001" />
  <path d="M3 3.32001L21 21.32" />

</symbol>
<symbol id="cloud-add" viewBox="0 0 24 24">
  <path
    d="M7.46027 19.3401H5.54022C2.60022 19.1301 1.28027 16.8701 1.28027 14.8601C1.28027 12.8501 2.60023 10.5801 5.49023 10.3801C5.90023 10.3401 6.26022 10.6601 6.29022 11.0801C6.32022 11.4901 6.01027 11.8501 5.59027 11.8801C3.65027 12.0201 2.78027 13.4801 2.78027 14.8701C2.78027 16.2601 3.65027 17.7201 5.59027 17.8601H7.46027C7.87027 17.8601 8.21027 18.2001 8.21027 18.6101C8.21027 19.0201 7.87027 19.3401 7.46027 19.3401Z" />
  <path
    d="M16.6699 19.34C16.6499 19.34 16.6399 19.34 16.6199 19.34C16.2099 19.34 15.8299 19 15.8299 18.59C15.8299 18.16 16.1499 17.84 16.5699 17.84C17.7999 17.84 18.8999 17.41 19.7599 16.64C21.3199 15.28 21.4199 13.32 20.9999 11.94C20.5799 10.57 19.4099 9 17.3699 8.75C17.0399 8.71 16.7799 8.46001 16.7199 8.13001C16.3199 5.73001 15.0299 4.07 13.0699 3.47C11.0499 2.84 8.68989 3.46 7.21988 5C5.78988 6.49 5.45989 8.58001 6.28989 10.88C6.42989 11.27 6.22994 11.7 5.83994 11.84C5.44994 11.98 5.01992 11.78 4.87992 11.39C3.86992 8.57 4.32993 5.87 6.13993 3.97C7.98993 2.03 10.9599 1.26 13.5099 2.04C15.8499 2.76 17.4999 4.69 18.0999 7.37C20.1399 7.83 21.7799 9.38001 22.4299 11.52C23.1399 13.85 22.4999 16.25 20.7499 17.77C19.6399 18.77 18.1899 19.34 16.6699 19.34Z" />
  <path
    d="M12 22.28C9.99 22.28 8.11002 21.21 7.08002 19.48C6.97002 19.31 6.86002 19.11 6.77002 18.89C6.43002 18.18 6.25 17.37 6.25 16.53C6.25 13.36 8.83 10.78 12 10.78C15.17 10.78 17.75 13.36 17.75 16.53C17.75 17.38 17.57 18.18 17.21 18.92C17.13 19.11 17.02 19.31 16.9 19.5C15.89 21.21 14.01 22.28 12 22.28ZM12 12.28C9.66 12.28 7.75 14.19 7.75 16.53C7.75 17.15 7.88 17.73 8.13 18.26C8.21 18.43 8.27999 18.57 8.35999 18.7C9.11999 19.99 10.51 20.78 11.99 20.78C13.47 20.78 14.86 19.99 15.61 18.72C15.7 18.57 15.78 18.43 15.84 18.29C16.11 17.74 16.24 17.16 16.24 16.54C16.25 14.19 14.34 12.28 12 12.28Z" />
  <path
    d="M11.4299 18.2698C11.2399 18.2698 11.0499 18.1998 10.8999 18.0498L9.90988 17.0598C9.61988 16.7698 9.61988 16.2898 9.90988 15.9998C10.1999 15.7098 10.6799 15.7098 10.9699 15.9998L11.4499 16.4798L13.0499 14.9998C13.3599 14.7198 13.8299 14.7398 14.1099 15.0398C14.3899 15.3398 14.3699 15.8198 14.0699 16.0998L11.9399 18.0698C11.7899 18.1998 11.6099 18.2698 11.4299 18.2698Z" />

</symbol>
<symbol id="cog" viewBox="0 0 24 24">
  <path
    d="M12,14.93A2.93,2.93,0,1,1,14.93,12,2.93,2.93,0,0,1,12,14.93Zm0-4.36A1.43,1.43,0,1,0,13.43,12,1.43,1.43,0,0,0,12,10.57Z" />
  <path
    d="M12.06,20.75a2.22,2.22,0,0,1-2.21-2.24.48.48,0,0,0-.29-.42.51.51,0,0,0-.56.09,2.24,2.24,0,0,1-1.56.65,2.26,2.26,0,0,1-1.58-.63,2.22,2.22,0,0,1,0-3.14A.5.5,0,0,0,6,14.54a.56.56,0,0,0-.48-.28,2.27,2.27,0,0,1-2.26-2.2A2.22,2.22,0,0,1,5.49,9.85a.48.48,0,0,0,.42-.29A.51.51,0,0,0,5.82,9a2.24,2.24,0,0,1-.65-1.56A2.2,2.2,0,0,1,5.8,5.86a2.22,2.22,0,0,1,3.14,0A.58.58,0,0,0,9.49,6a.6.6,0,0,0,.31-.48A2.27,2.27,0,0,1,12,3.25a2.22,2.22,0,0,1,2.2,2.24.52.52,0,0,0,.28.44A.5.5,0,0,0,15,5.82a2.24,2.24,0,0,1,1.56-.65,2.13,2.13,0,0,1,1.58.63,2.22,2.22,0,0,1,0,3.14.58.58,0,0,0-.11.55.6.6,0,0,0,.48.31A2.27,2.27,0,0,1,20.75,12a2.22,2.22,0,0,1-2.24,2.2.52.52,0,0,0-.44.28h0a.5.5,0,0,0,.11.52,2.24,2.24,0,0,1,.65,1.56,2.2,2.2,0,0,1-.63,1.58,2.22,2.22,0,0,1-3.14,0,.5.5,0,0,0-.52-.11.56.56,0,0,0-.28.48A2.27,2.27,0,0,1,12.06,20.75ZM9.35,16.54a1.83,1.83,0,0,1,.77.16,2,2,0,0,1,1.23,1.8.74.74,0,0,0,.71.75.76.76,0,0,0,.7-.77,2.06,2.06,0,0,1,1.18-1.85,2,2,0,0,1,2.18.43.7.7,0,1,0,1-1,2,2,0,0,1-.42-2.18,2,2,0,0,1,1.82-1.18.73.73,0,0,0,.74-.7.75.75,0,0,0-.77-.7,2.1,2.1,0,0,1-1.85-1.22,2.05,2.05,0,0,1,.43-2.2.7.7,0,1,0-1-1,2,2,0,0,1-3.36-1.4.73.73,0,0,0-.7-.74.75.75,0,0,0-.7.77,2.1,2.1,0,0,1-1.22,1.85,2.05,2.05,0,0,1-2.2-.43.7.7,0,1,0-1,1,2,2,0,0,1,.41,2.18,2,2,0,0,1-1.8,1.23.74.74,0,0,0-.75.71.76.76,0,0,0,.77.7,2.06,2.06,0,0,1,1.85,1.18,2,2,0,0,1-.43,2.18.7.7,0,1,0,1,1A2.06,2.06,0,0,1,9.35,16.54Zm8-2.36h0Z" />
</symbol>
<symbol id="company" viewBox="0 0 24 24">
  <path
    d="M11,3a1,1,0,0,0-1-1H3A1,1,0,0,0,2,3V22h9ZM9,18H4V16H9Zm0-4H4V12H9Zm0-4H4V8H9ZM9,6H4V4H9ZM21,8H14a1,1,0,0,0-1,1V22h9V9A1,1,0,0,0,21,8ZM17,20H15V18h2Zm0-4H15V14h2Zm0-4H15V10h2Zm3,8H18V18h2Zm0-4H18V14h2Zm0-4H18V10h2Z" />
</symbol>
<symbol id="contacts-card" viewBox="0 -32 576 576">
  <path
    d="M528 32H48C21.5 32 0 53.5 0 80v352c0 26.5 21.5 48 48 48h480c26.5 0 48-21.5 48-48V80c0-26.5-21.5-48-48-48zm-352 96c35.3 0 64 28.7 64 64s-28.7 64-64 64-64-28.7-64-64 28.7-64 64-64zm112 236.8c0 10.6-10 19.2-22.4 19.2H86.4C74 384 64 375.4 64 364.8v-19.2c0-31.8 30.1-57.6 67.2-57.6h5c12.3 5.1 25.7 8 39.8 8s27.6-2.9 39.8-8h5c37.1 0 67.2 25.8 67.2 57.6v19.2zM512 312c0 4.4-3.6 8-8 8H360c-4.4 0-8-3.6-8-8v-16c0-4.4 3.6-8 8-8h144c4.4 0 8 3.6 8 8v16zm0-64c0 4.4-3.6 8-8 8H360c-4.4 0-8-3.6-8-8v-16c0-4.4 3.6-8 8-8h144c4.4 0 8 3.6 8 8v16zm0-64c0 4.4-3.6 8-8 8H360c-4.4 0-8-3.6-8-8v-16c0-4.4 3.6-8 8-8h144c4.4 0 8 3.6 8 8v16z" />
</symbol>
<symbol id="contacts" viewBox="0 0 96 96">
  <path
    d="M48,0a48,48,0,0,0,0,96,6,6,0,0,0,0-12A36,36,0,1,1,84,48V66a6,6,0,0,1-12,0V48A24,24,0,1,0,48,72a23.7365,23.7365,0,0,0,12.2549-3.4783A17.9586,17.9586,0,0,0,96,66V48A48.0474,48.0474,0,0,0,48,0Zm0,60A12,12,0,1,1,60,48,12.0081,12.0081,0,0,1,48,60Z" />
</symbol>
<symbol id="copy" viewBox="0 0 24 24">
  <path
    d="M11.1 22.75H6.9C2.99 22.75 1.25 21.01 1.25 17.1V12.9C1.25 8.99 2.99 7.25 6.9 7.25H11.1C15.01 7.25 16.75 8.99 16.75 12.9V17.1C16.75 21.01 15.01 22.75 11.1 22.75ZM6.9 8.75C3.8 8.75 2.75 9.8 2.75 12.9V17.1C2.75 20.2 3.8 21.25 6.9 21.25H11.1C14.2 21.25 15.25 20.2 15.25 17.1V12.9C15.25 9.8 14.2 8.75 11.1 8.75H6.9Z" />
  <path
    d="M17.1 16.75H16C15.59 16.75 15.25 16.41 15.25 16V12.9C15.25 9.8 14.2 8.75 11.1 8.75H8C7.59 8.75 7.25 8.41 7.25 8V6.9C7.25 2.99 8.99 1.25 12.9 1.25H17.1C21.01 1.25 22.75 2.99 22.75 6.9V11.1C22.75 15.01 21.01 16.75 17.1 16.75ZM16.75 15.25H17.1C20.2 15.25 21.25 14.2 21.25 11.1V6.9C21.25 3.8 20.2 2.75 17.1 2.75H12.9C9.8 2.75 8.75 3.8 8.75 6.9V7.25H11.1C15.01 7.25 16.75 8.99 16.75 12.9V15.25Z" />
</symbol>
<symbol id="document-text" viewBox="0 0 24 24">
  <path
    d="M16 22.75H8C4.35 22.75 2.25 20.65 2.25 17V7C2.25 3.35 4.35 1.25 8 1.25H16C19.65 1.25 21.75 3.35 21.75 7V17C21.75 20.65 19.65 22.75 16 22.75ZM8 2.75C5.14 2.75 3.75 4.14 3.75 7V17C3.75 19.86 5.14 21.25 8 21.25H16C18.86 21.25 20.25 19.86 20.25 17V7C20.25 4.14 18.86 2.75 16 2.75H8Z" />
  <path
    d="M18.5 9.25H16.5C14.98 9.25 13.75 8.02 13.75 6.5V4.5C13.75 4.09 14.09 3.75 14.5 3.75C14.91 3.75 15.25 4.09 15.25 4.5V6.5C15.25 7.19 15.81 7.75 16.5 7.75H18.5C18.91 7.75 19.25 8.09 19.25 8.5C19.25 8.91 18.91 9.25 18.5 9.25Z" />
  <path
    d="M12 13.75H8C7.59 13.75 7.25 13.41 7.25 13C7.25 12.59 7.59 12.25 8 12.25H12C12.41 12.25 12.75 12.59 12.75 13C12.75 13.41 12.41 13.75 12 13.75Z" />
  <path
    d="M16 17.75H8C7.59 17.75 7.25 17.41 7.25 17C7.25 16.59 7.59 16.25 8 16.25H16C16.41 16.25 16.75 16.59 16.75 17C16.75 17.41 16.41 17.75 16 17.75Z" />
</symbol>
<symbol id="download" viewBox="0 0 24 24">
  <path
    d="M18.22,20.75H5.78A2.64,2.64,0,0,1,3.25,18V15a.75.75,0,0,1,1.5,0v3a1.16,1.16,0,0,0,1,1.25H18.22a1.16,1.16,0,0,0,1-1.25V15a.75.75,0,0,1,1.5,0v3A2.64,2.64,0,0,1,18.22,20.75Z" />
  <path
    d="M12,15.75a.74.74,0,0,1-.53-.22l-4-4a.75.75,0,0,1,1.06-1.06L12,13.94l3.47-3.47a.75.75,0,0,1,1.06,1.06l-4,4A.74.74,0,0,1,12,15.75Z" />
  <path d="M12,15.75a.76.76,0,0,1-.75-.75V4a.75.75,0,0,1,1.5,0V15A.76.76,0,0,1,12,15.75Z" />
</symbol>
<symbol id="editor" viewBox="0 0 32 32">
	<g>
		<path d="M27,22.1V9.9c1.7-0.4,3-2,3-3.9c0-2.2-1.8-4-4-4c-1.9,0-3.4,1.3-3.9,3H9.9C9.4,3.3,7.9,2,6,2C3.8,2,2,3.8,2,6
		c0,1.9,1.3,3.4,3,3.9v12.3c-1.7,0.4-3,2-3,3.9c0,2.2,1.8,4,4,4c1.9,0,3.4-1.3,3.9-3h12.3c0.4,1.7,2,3,3.9,3c2.2,0,4-1.8,4-4
		C30,24.1,28.7,22.6,27,22.1z M22.1,25H9.9c-0.4-1.4-1.5-2.5-2.9-2.9V9.9C8.4,9.5,9.5,8.4,9.9,7h12.3c0.4,1.4,1.5,2.5,2.9,2.9v12.3
		C23.6,22.5,22.5,23.6,22.1,25z" />
		<path d="M21,10H11c-0.6,0-1,0.4-1,1v2c0,0.6,0.4,1,1,1s1-0.4,1-1v-1h3v8h-1c-0.6,0-1,0.4-1,1s0.4,1,1,1h4c0.6,0,1-0.4,1-1
		s-0.4-1-1-1h-1v-8h3v1c0,0.6,0.4,1,1,1s1-0.4,1-1v-2C22,10.4,21.6,10,21,10z" />
	</g>
</symbol>
<symbol id="employees" viewBox="0 0 787.3 787.3">
	<path d="M393.3,172c0.1,0,0.2,0,0.399,0c0.101,0,0.2,0,0.4,0c47.3,0,85.599-38.3,85.599-85.6c0-7.5-1-14.8-2.799-21.7
				c-9.5-36.9-43-64.2-82.9-64.2c-0.101,0-0.2,0-0.4,0c-0.1,0-0.2,0-0.4,0c-47.3-0.1-85.6,38.3-85.6,85.5c0,7.5,1,14.8,2.8,21.7
				C319.899,144.7,353.399,172,393.3,172z" />
	<path d="M394.1,172.5h-0.8c-39.318,0-73.607-26.596-83.385-64.676C308.047,100.663,307.1,93.319,307.1,86
				c0-47.421,38.542-86,85.915-86H394c39.307,0,73.595,26.554,83.384,64.575c1.867,7.163,2.814,14.507,2.814,21.825
				C480.199,133.875,441.575,172.5,394.1,172.5z M393.015,1C346.192,1,308.1,39.131,308.1,86c0,7.234,0.937,14.492,2.784,21.574
				c9.664,37.64,43.555,63.926,82.417,63.926h0.8c46.923,0,85.099-38.176,85.099-85.1c0-7.233-0.937-14.492-2.782-21.574
				C466.741,27.246,432.85,1,394,1H393.015z" />
	<path d="M483.8,207.9h-21.4L441,314.7h-25.301l-6.6-71.7c2-10.9,6.701-21.1,11.701-31.8c0,0,0.898-1.9,1.398-2.9l0,0
			c-0.1,0-0.199,0-0.299,0c0.1-0.1,0.1-0.3,0.199-0.4c-30,0-27.599,0-57,0l0,0c0.1,0.1,0.1,0.2,0.2,0.4h-0.101l0,0
			c0.5,1,1.4,2.9,1.4,2.9c4.4,9.3,8.5,18.2,10.8,27.6c0.3,1.3,0.601,2.6,0.8,3.9l-6.6,72.1h-25.3l-21.4-106.8H303.5
			c-32.5,0-58.8,26.3-58.8,58.8v171.3c0,32.5,26.3,58.8,58.8,58.8h7.5v248.9c0,22.9,18.6,41.5,41.5,41.5
			c21.3,0,38.899-16.1,41.199-36.9c2.3,20.7,19.9,36.9,41.201,36.9c22.9,0,41.5-18.6,41.5-41.5V496.7h7.5
			c32.5,0,58.799-26.301,58.799-58.801V266.6C542.5,234.2,516.199,207.9,483.8,207.9z" />
	<path d="M615.4,172c0.1,0,0.199,0,0.4,0c0.1,0,0.199,0,0.398,0c47.301,0,85.602-38.3,85.602-85.6c0-7.5-1-14.8-2.801-21.7
			c-9.5-36.9-43-64.2-82.9-64.2c-0.1,0-0.199,0-0.4,0c-0.1,0-0.199,0-0.398,0c-47.301,0-85.602,38.3-85.602,85.6
			c0,7.5,1,14.8,2.801,21.7C542,144.7,575.5,172,615.4,172z" />
	<path d="M616.199,172.5H615.4c-39.307,0-73.596-26.554-83.385-64.576c-1.868-7.16-2.816-14.504-2.816-21.825
			c0-47.476,38.625-86.1,86.102-86.1h0.799c39.307,0,73.596,26.554,83.385,64.575c1.868,7.16,2.816,14.504,2.816,21.825
			C702.3,133.875,663.675,172.5,616.199,172.5z M615.3,1c-46.925,0-85.102,38.175-85.102,85.1c0,7.236,0.937,14.494,2.784,21.574
			c9.676,37.581,43.566,63.827,82.417,63.827h0.799c46.925,0,85.102-38.176,85.102-85.1c0-7.236-0.937-14.494-2.784-21.574
			C688.84,27.246,654.95,1,616.099,1H615.3z" />
	<path d="M705.9,207.9h-21.4l-21.4,106.8H637.8l-6.602-71.7c2-10.9,6.701-21.1,11.701-31.8c0,0,0.9-1.9,1.4-2.9
		c-0.102,0-0.201,0-0.301,0c0.1-0.1,0.1-0.3,0.199-0.4c-30,0-27.6,0-57,0l0,0c0.102,0.1,0.102,0.2,0.201,0.4h-0.1l0,0
		c0.5,1,1.398,2.9,1.398,2.9c4.4,9.3,8.5,18.2,10.801,27.6c0.301,1.3,0.6,2.6,0.801,3.9l-6.602,72.1h-23v123.3
		c0,29.601-14.898,55.8-37.6,71.4v236.3c0,22.9,18.6,41.5,41.5,41.5c21.301,0,38.9-16.1,41.201-36.9
		c2.299,20.7,19.9,36.9,41.199,36.9c22.9,0,41.5-18.6,41.5-41.5V496.7h7.5c32.5,0,58.801-26.301,58.801-58.801V266.6
		C764.599,234.2,738.3,207.9,705.9,207.9z" />
	<path d="M171.2,172c0.1,0,0.2,0,0.4,0c0.1,0,0.2,0,0.4,0c47.3,0,85.6-38.3,85.6-85.6c0-7.5-1-14.8-2.8-21.7
			c-9.5-36.9-43-64.2-82.9-64.2c-0.1,0-0.2,0-0.4,0c-0.1,0-0.2,0-0.4,0c-47.3,0-85.6,38.3-85.6,85.6c0,7.5,1,14.8,2.8,21.7
			C97.8,144.7,131.3,172,171.2,172z" />
	<path d="M172,172.5h-0.8c-39.307,0-73.595-26.554-83.384-64.576C85.947,100.763,85,93.42,85,86.1C85,38.624,123.624,0,171.1,0h0.8
			c39.307,0,73.596,26.554,83.385,64.575c1.868,7.162,2.815,14.505,2.815,21.825C258.1,133.875,219.475,172.5,172,172.5z M171.1,1
			C124.175,1,86,39.175,86,86.1c0,7.235,0.937,14.494,2.784,21.574C98.459,145.254,132.35,171.5,171.2,171.5h0.8
			c46.924,0,85.1-38.176,85.1-85.1c0-7.234-0.937-14.493-2.784-21.574C244.641,27.246,210.75,1,171.899,1H171.1z" />
	<path d="M216.6,438V314.7h-23L187,243c2-10.9,6.7-21.1,11.7-31.8c0,0,0.9-1.9,1.4-2.9c-0.1,0-0.2,0-0.3,0c0.1-0.1,0.1-0.3,0.2-0.4
		c-30,0-27.6,0-57,0l0,0c0.1,0.1,0.1,0.2,0.2,0.4h-0.1l0,0c0.5,1,1.4,2.9,1.4,2.9c4.4,9.3,8.5,18.2,10.8,27.6
		c0.3,1.3,0.6,2.6,0.8,3.9l-6.6,72.1h-25.3L102.8,208H81.3c-32.5,0-58.8,26.3-58.8,58.8v171.3c0,32.5,26.3,58.8,58.8,58.8h7.5v248.9
		c0,22.9,18.6,41.5,41.5,41.5c21.3,0,38.9-16.1,41.2-36.9c2.3,20.7,19.9,36.9,41.2,36.9c22.9,0,41.5-18.6,41.5-41.5v-236.4
		C231.5,493.7,216.6,467.6,216.6,438z" />
</symbol>
<symbol id="eye" viewBox="0 0 24 24">
  <path
    d="M11.9999 16.3299C9.60992 16.3299 7.66992 14.3899 7.66992 11.9999C7.66992 9.60992 9.60992 7.66992 11.9999 7.66992C14.3899 7.66992 16.3299 9.60992 16.3299 11.9999C16.3299 14.3899 14.3899 16.3299 11.9999 16.3299ZM11.9999 9.16992C10.4399 9.16992 9.16992 10.4399 9.16992 11.9999C9.16992 13.5599 10.4399 14.8299 11.9999 14.8299C13.5599 14.8299 14.8299 13.5599 14.8299 11.9999C14.8299 10.4399 13.5599 9.16992 11.9999 9.16992Z" />
  <path
    d="M12.0001 21.02C8.24008 21.02 4.69008 18.82 2.25008 15C1.19008 13.35 1.19008 10.66 2.25008 8.99998C4.70008 5.17998 8.25008 2.97998 12.0001 2.97998C15.7501 2.97998 19.3001 5.17998 21.7401 8.99998C22.8001 10.65 22.8001 13.34 21.7401 15C19.3001 18.82 15.7501 21.02 12.0001 21.02ZM12.0001 4.47998C8.77008 4.47998 5.68008 6.41998 3.52008 9.80998C2.77008 10.98 2.77008 13.02 3.52008 14.19C5.68008 17.58 8.77008 19.52 12.0001 19.52C15.2301 19.52 18.3201 17.58 20.4801 14.19C21.2301 13.02 21.2301 10.98 20.4801 9.80998C18.3201 6.41998 15.2301 4.47998 12.0001 4.47998Z" />
</symbol>
<symbol id="format-square" viewBox="0 0 24 24">
  <path
    d="M17.05 20.75H6.95C6.73 20.75 6.52 20.65 6.37 20.48C6.22 20.31 6.17 20.08 6.21 19.86C6.23 19.74 6.25 19.62 6.25 19.5C6.25 18.54 5.46 17.75 4.5 17.75C4.38 17.75 4.25 17.76 4.14 17.79C3.92 17.83 3.69 17.77 3.52 17.63C3.35 17.49 3.25 17.28 3.25 17.05V6.95C3.25 6.73 3.35 6.52 3.52 6.37C3.69 6.22 3.91 6.17 4.14 6.21C4.25 6.24 4.38 6.25 4.5 6.25C5.46 6.25 6.25 5.46 6.25 4.5C6.25 4.38 6.24 4.25 6.21 4.14C6.17 3.92 6.23 3.69 6.37 3.52C6.51 3.35 6.72 3.25 6.95 3.25H17.05C17.27 3.25 17.48 3.35 17.63 3.52C17.78 3.69 17.83 3.92 17.79 4.14C17.77 4.26 17.75 4.38 17.75 4.5C17.75 5.46 18.54 6.25 19.5 6.25C19.62 6.25 19.75 6.24 19.86 6.21C20.08 6.17 20.31 6.23 20.48 6.37C20.65 6.51 20.75 6.72 20.75 6.95V17.05C20.75 17.27 20.65 17.48 20.48 17.63C20.31 17.78 20.08 17.83 19.86 17.79C19.74 17.77 19.62 17.75 19.5 17.75C18.54 17.75 17.75 18.54 17.75 19.5C17.75 19.62 17.76 19.75 17.79 19.86C17.83 20.08 17.77 20.31 17.63 20.48C17.49 20.65 17.27 20.75 17.05 20.75ZM7.74 19.25H16.26C16.38 17.66 17.66 16.38 19.25 16.26V7.74C17.66 7.62 16.38 6.34 16.26 4.75H7.74C7.62 6.34 6.34 7.62 4.75 7.74V16.26C6.34 16.38 7.62 17.66 7.74 19.25Z" />
  <path
    d="M4.5 7.75C4.28 7.75 4.07 7.73 3.86 7.69C2.34 7.38 1.25 6.04 1.25 4.5C1.25 2.71 2.71 1.25 4.5 1.25C6.04 1.25 7.38 2.34 7.69 3.85C7.73 4.07 7.75 4.28 7.75 4.5C7.75 6.29 6.29 7.75 4.5 7.75ZM4.5 2.75C3.54 2.75 2.75 3.54 2.75 4.5C2.75 5.33 3.34 6.05 4.15 6.21C4.25 6.24 4.38 6.25 4.5 6.25C5.46 6.25 6.25 5.46 6.25 4.5C6.25 4.38 6.24 4.25 6.21 4.14C6.05 3.34 5.33 2.75 4.5 2.75Z" />
  <path
    d="M19.5 7.75C17.71 7.75 16.25 6.29 16.25 4.5C16.25 4.28 16.27 4.07 16.31 3.86C16.62 2.34 17.96 1.25 19.5 1.25C21.29 1.25 22.75 2.71 22.75 4.5C22.75 6.04 21.66 7.38 20.15 7.69C19.93 7.73 19.72 7.75 19.5 7.75ZM19.5 2.75C18.67 2.75 17.95 3.34 17.79 4.15C17.77 4.26 17.75 4.38 17.75 4.5C17.75 5.46 18.54 6.25 19.5 6.25C19.62 6.25 19.75 6.24 19.86 6.21C20.66 6.05 21.25 5.33 21.25 4.5C21.25 3.54 20.46 2.75 19.5 2.75Z" />
  <path
    d="M4.5 22.75C2.71 22.75 1.25 21.29 1.25 19.5C1.25 17.96 2.34 16.62 3.85 16.31C4.06 16.27 4.28 16.25 4.5 16.25C6.29 16.25 7.75 17.71 7.75 19.5C7.75 19.72 7.73 19.93 7.69 20.14C7.38 21.66 6.04 22.75 4.5 22.75ZM4.5 17.75C4.38 17.75 4.25 17.76 4.14 17.79C3.34 17.95 2.75 18.67 2.75 19.5C2.75 20.46 3.54 21.25 4.5 21.25C5.33 21.25 6.05 20.66 6.21 19.85C6.23 19.74 6.25 19.62 6.25 19.5C6.25 18.54 5.46 17.75 4.5 17.75Z" />
  <path
    d="M19.5 22.75C17.96 22.75 16.62 21.66 16.31 20.15C16.27 19.94 16.25 19.72 16.25 19.5C16.25 17.71 17.71 16.25 19.5 16.25C19.72 16.25 19.93 16.27 20.14 16.31C21.66 16.62 22.75 17.96 22.75 19.5C22.75 21.29 21.29 22.75 19.5 22.75ZM19.5 17.75C18.54 17.75 17.75 18.54 17.75 19.5C17.75 19.62 17.76 19.75 17.79 19.86C17.95 20.66 18.67 21.25 19.5 21.25C20.46 21.25 21.25 20.46 21.25 19.5C21.25 18.67 20.66 17.95 19.85 17.79C19.75 17.76 19.62 17.75 19.5 17.75Z" />

</symbol>
<symbol id="instructions-template" viewBox="0 0 1920 1920">
    <path
        d="M1468.183 451.76v1468.184H0V451.76h1468.183ZM1920 0v1468.296h-338.812V338.812H451.704V0H1920ZM338.812 1016.446h790.56V903.509h-790.56v112.937Zm0 225.874h564.686v-112.937H338.812v112.937Zm0 225.988h790.56v-113.05h-790.56v113.05Z" />
</symbol>
<symbol id="key" viewBox="0 0 24 24">
	<path d="M12.74,8.74C12.91,8.19,13,7.6,13,7c0-3.31-2.69-6-6-6S1,3.69,1,7s2.69,6,6,6c0.88,0,1.72-0.19,2.47-0.53L10,13v3h3v3h3v2
		l2,2h5v-4L12.74,8.74z M6,8C4.9,8,4,7.1,4,6s0.9-2,2-2s2,0.9,2,2S7.1,8,6,8z" />
</symbol>
<symbol id="language" viewBox="0 0 24 24">
  <path style="stroke: none"
    d="M11.99 2C6.47 2 2 6.48 2 12s4.47 10 9.99 10C17.52 22 22 17.52 22 12S17.52 2 11.99 2zm6.93 6h-2.95c-.32-1.25-.78-2.45-1.38-3.56 1.84.63 3.37 1.91 4.33 3.56zM12 4.04c.83 1.2 1.48 2.53 1.91 3.96h-3.82c.43-1.43 1.08-2.76 1.91-3.96zM4.26 14C4.1 13.36 4 12.69 4 12s.1-1.36.26-2h3.38c-.08.66-.14 1.32-.14 2 0 .68.06 1.34.14 2H4.26zm.82 2h2.95c.32 1.25.78 2.45 1.38 3.56-1.84-.63-3.37-1.9-4.33-3.56zm2.95-8H5.08c.96-1.66 2.49-2.93 4.33-3.56C8.81 5.55 8.35 6.75 8.03 8zM12 19.96c-.83-1.2-1.48-2.53-1.91-3.96h3.82c-.43 1.43-1.08 2.76-1.91 3.96zM14.34 14H9.66c-.09-.66-.16-1.32-.16-2 0-.68.07-1.35.16-2h4.68c.09.65.16 1.32.16 2 0 .68-.07 1.34-.16 2zm.25 5.56c.6-1.11 1.06-2.31 1.38-3.56h2.95c-.96 1.65-2.49 2.93-4.33 3.56zM16.36 14c.08-.66.14-1.32.14-2 0-.68-.06-1.34-.14-2h3.38c.16.64.26 1.31.26 2s-.1 1.36-.26 2h-3.38z" />

</symbol>
<symbol id="learn" viewBox="0 0 32 32">
	<path
		d="M30,22v3c0,0.552-0.448,1-1,1h-1c-0.552,0-1-0.448-1-1v-3c0-0.552,0.448-1,1-1v-7.539l-11.198-0.896
	C16.621,12.822,16.337,13,16,13c-0.552,0-1-0.448-1-1c0-0.552,0.448-1,1-1c0.396,0,0.732,0.235,0.894,0.57l11.186,0.895
	c0.516,0.041,0.92,0.479,0.92,0.997V21C29.552,21,30,21.448,30,22z M16,19.725c-0.547,0-1.094-0.111-1.603-0.334L8,16.592v2.227
	c0,1.136,0.642,2.175,1.658,2.683l0,0C11.655,22.501,13.827,23,16,23s4.345-0.499,6.341-1.497l0,0C23.358,20.995,24,19.956,24,18.82
	v-2.227l-6.397,2.799C17.094,19.614,16.547,19.725,16,19.725z M29.906,11.084L17.202,5.526C16.819,5.358,16.41,5.275,16,5.275
	c-0.41,0-0.819,0.084-1.202,0.252L2.094,11.084c-0.799,0.35-0.799,1.483,0,1.832l12.703,5.559c0.765,0.334,1.641,0.334,2.405,0
	l9.416-4.121l-9.438-0.755C16.843,13.858,16.434,14,16,14c-1.103,0-2-0.897-2-2c0-1.103,0.897-2,2-2
	c0.552,0,1.062,0.224,1.431,0.609l10.729,0.858c0.842,0.067,1.525,0.666,1.751,1.445C30.704,12.561,30.703,11.433,29.906,11.084z" />
</symbol>
<symbol id="learn2" viewBox="0 0 20 20">
  <path
    d="M10 10L2.54 7.02 3 18H1l.48-11.41L0 6l10-4 10 4zm0-5c-.55 0-1 .22-1 .5s.45.5 1 .5 1-.22 1-.5-.45-.5-1-.5zm0 6l5.57-2.23c.71.94 1.2 2.07 1.36 3.3-.3-.04-.61-.07-.93-.07-2.55 0-4.78 1.37-6 3.41C8.78 13.37 6.55 12 4 12c-.32 0-.63.03-.93.07.16-1.23.65-2.36 1.36-3.3z" />
</symbol>
<symbol id="logout" viewBox="0 0 24 24">
  <path
    d="M22 6.62219V17.245C22 18.3579 21.2857 19.4708 20.1633 19.8754L15.0612 21.7977C14.7551 21.8988 14.449 22 14.0408 22C13.5306 22 12.9184 21.7977 12.4082 21.4942C12.2041 21.2918 11.898 21.0895 11.7959 20.8871H7.91837C6.38776 20.8871 5.06122 19.6731 5.06122 18.0544V17.0427C5.06122 16.638 5.36735 16.2333 5.87755 16.2333C6.38776 16.2333 6.69388 16.5368 6.69388 17.0427V18.0544C6.69388 18.7626 7.30612 19.2684 7.91837 19.2684H11.2857V4.69997H7.91837C7.20408 4.69997 6.69388 5.20582 6.69388 5.91401V6.9257C6.69388 7.33038 6.38776 7.73506 5.87755 7.73506C5.36735 7.73506 5.06122 7.33038 5.06122 6.9257V5.91401C5.06122 4.39646 6.28572 3.08125 7.91837 3.08125H11.7959C12 2.87891 12.2041 2.67657 12.4082 2.47423C13.2245 1.96838 14.1429 1.86721 15.0612 2.17072L20.1633 4.09295C21.1837 4.39646 22 5.50933 22 6.62219Z" />
  <path
    d="M4.85714 14.8169C4.65306 14.8169 4.44898 14.7158 4.34694 14.6146L2.30612 12.5912C2.20408 12.49 2.20408 12.3889 2.10204 12.3889C2.10204 12.2877 2 12.1865 2 12.0854C2 11.9842 2 11.883 2.10204 11.7819C2.10204 11.6807 2.20408 11.5795 2.30612 11.5795L4.34694 9.55612C4.65306 9.25261 5.16327 9.25261 5.46939 9.55612C5.77551 9.85963 5.77551 10.3655 5.46939 10.669L4.7551 11.3772H8.93878C9.34694 11.3772 9.7551 11.6807 9.7551 12.1865C9.7551 12.6924 9.34694 12.7936 8.93878 12.7936H4.65306L5.36735 13.5017C5.67347 13.8052 5.67347 14.3111 5.36735 14.6146C5.26531 14.7158 5.06122 14.8169 4.85714 14.8169Z" />
</symbol>
<symbol id="message-text-1" viewBox="0 0 24 24">
  <path
    d="M16 22.75H3C2.04 22.75 1.25 21.96 1.25 21V8C1.25 3.58 3.58 1.25 8 1.25H16C20.42 1.25 22.75 3.58 22.75 8V16C22.75 20.42 20.42 22.75 16 22.75ZM8 2.75C4.42 2.75 2.75 4.42 2.75 8V21C2.75 21.14 2.86 21.25 3 21.25H16C19.58 21.25 21.25 19.58 21.25 16V8C21.25 4.42 19.58 2.75 16 2.75H8Z" />
  <path
    d="M17 10.25H7C6.59 10.25 6.25 9.91 6.25 9.5C6.25 9.09 6.59 8.75 7 8.75H17C17.41 8.75 17.75 9.09 17.75 9.5C17.75 9.91 17.41 10.25 17 10.25Z" />
  <path
    d="M14 15.25H7C6.59 15.25 6.25 14.91 6.25 14.5C6.25 14.09 6.59 13.75 7 13.75H14C14.41 13.75 14.75 14.09 14.75 14.5C14.75 14.91 14.41 15.25 14 15.25Z" />

</symbol>
<symbol id="message-text" viewBox="0 0 24 24">
  <path
    d="M12 22.81C11.31 22.81 10.66 22.46 10.2 21.85L8.7 19.85C8.67 19.81 8.55 19.76 8.5 19.75H8C3.83 19.75 1.25 18.62 1.25 13V8C1.25 3.58 3.58 1.25 8 1.25H16C20.42 1.25 22.75 3.58 22.75 8V13C22.75 17.42 20.42 19.75 16 19.75H15.5C15.42 19.75 15.35 19.79 15.3 19.85L13.8 21.85C13.34 22.46 12.69 22.81 12 22.81ZM8 2.75C4.42 2.75 2.75 4.42 2.75 8V13C2.75 17.52 4.3 18.25 8 18.25H8.5C9.01 18.25 9.59 18.54 9.9 18.95L11.4 20.95C11.75 21.41 12.25 21.41 12.6 20.95L14.1 18.95C14.43 18.51 14.95 18.25 15.5 18.25H16C19.58 18.25 21.25 16.58 21.25 13V8C21.25 4.42 19.58 2.75 16 2.75H8Z" />
  <path
    d="M17 8.75H7C6.59 8.75 6.25 8.41 6.25 8C6.25 7.59 6.59 7.25 7 7.25H17C17.41 7.25 17.75 7.59 17.75 8C17.75 8.41 17.41 8.75 17 8.75Z" />
  <path
    d="M13 13.75H7C6.59 13.75 6.25 13.41 6.25 13C6.25 12.59 6.59 12.25 7 12.25H13C13.41 12.25 13.75 12.59 13.75 13C13.75 13.41 13.41 13.75 13 13.75Z" />

</symbol>
<symbol id="messages" viewBox="0 0 24 24">
  <path
    d="M9.98999 22.78C9.38999 22.78 8.81999 22.48 8.42999 21.95L7.23001 20.35C7.23001 20.36 7.18 20.33 7.16 20.33H6.79001C3.37001 20.33 1.25 19.4 1.25 14.79V10.79C1.25 6.58001 3.82001 5.48001 5.98001 5.29001C6.22001 5.26001 6.50001 5.25 6.79001 5.25H13.19C16.81 5.25 18.73 7.17001 18.73 10.79V14.79C18.73 15.08 18.72 15.36 18.68 15.63C18.5 17.76 17.4 20.33 13.19 20.33H12.79L11.55 21.95C11.16 22.48 10.59 22.78 9.98999 22.78ZM6.79001 6.75C6.56001 6.75 6.34 6.76 6.13 6.78C3.81 6.98 2.75 8.25001 2.75 10.79V14.79C2.75 18.22 3.81001 18.83 6.79001 18.83H7.19C7.64 18.83 8.14999 19.08 8.42999 19.44L9.63 21.05C9.85001 21.35 10.13 21.35 10.35 21.05L11.55 19.45C11.84 19.06 12.3 18.83 12.79 18.83H13.19C15.73 18.83 17 17.76 17.19 15.48C17.22 15.24 17.23 15.02 17.23 14.79V10.79C17.23 8.00001 15.98 6.75 13.19 6.75H6.79001Z" />
  <path
    d="M9.99023 14.1899C9.43023 14.1899 8.99023 13.7399 8.99023 13.1899C8.99023 12.6399 9.44023 12.1899 9.99023 12.1899C10.5402 12.1899 10.9902 12.6399 10.9902 13.1899C10.9902 13.7399 10.5502 14.1899 9.99023 14.1899Z" />
  <path
    d="M13.1895 14.1899C12.6295 14.1899 12.1895 13.7399 12.1895 13.1899C12.1895 12.6399 12.6395 12.1899 13.1895 12.1899C13.7395 12.1899 14.1895 12.6399 14.1895 13.1899C14.1895 13.7399 13.7395 14.1899 13.1895 14.1899Z" />
  <path
    d="M6.80078 14.1899C6.24078 14.1899 5.80078 13.7399 5.80078 13.1899C5.80078 12.6399 6.25078 12.1899 6.80078 12.1899C7.35078 12.1899 7.80078 12.6399 7.80078 13.1899C7.80078 13.7399 7.35078 14.1899 6.80078 14.1899Z" />
  <path
    d="M17.9396 16.29C17.7396 16.29 17.5396 16.21 17.3996 16.06C17.2396 15.9 17.1697 15.67 17.1997 15.45C17.2297 15.24 17.2396 15.02 17.2396 14.79V10.79C17.2396 8.00001 15.9897 6.75 13.1997 6.75H6.79963C6.56963 6.75 6.34966 6.76 6.13966 6.78C5.91966 6.81 5.68964 6.72999 5.52964 6.57999C5.36964 6.41999 5.27963 6.20001 5.29963 5.98001C5.47963 3.82001 6.58963 1.25 10.7996 1.25H17.1997C20.8197 1.25 22.7396 3.17001 22.7396 6.79001V10.79C22.7396 15 20.1697 16.1 18.0097 16.29C17.9797 16.29 17.9596 16.29 17.9396 16.29ZM6.91966 5.25H13.1896C16.8096 5.25 18.7297 7.17001 18.7297 10.79V14.66C20.4297 14.24 21.2297 12.99 21.2297 10.79V6.79001C21.2297 4.00001 19.9796 2.75 17.1896 2.75H10.7897C8.58965 2.75 7.34966 3.55 6.91966 5.25Z" />

</symbol>
<symbol id="moon" viewBox="0 0 24 24">
  <path
    d="M12 22C17.5228 22 22 17.5228 22 12C22 11.5373 21.3065 11.4608 21.0672 11.8568C19.9289 13.7406 17.8615 15 15.5 15C11.9101 15 9 12.0899 9 8.5C9 6.13845 10.2594 4.07105 12.1432 2.93276C12.5392 2.69347 12.4627 2 12 2C6.47715 2 2 6.47715 2 12C2 17.5228 6.47715 22 12 22Z" />
</symbol>
<symbol id="org-structure" viewBox="0 0 48 48">
  <path d="M24,15a6,6,0,1,0-6-6A6,6,0,0,0,24,15Z" />
  <path
    d="M40,33H26V27h7a2,2,0,0,0,2-2V21a18,18,0,0,0-11-4,18,18,0,0,0-11,4v4a2,2,0,0,0,2,2h7v6H8a2,2,0,0,0-2,2v8a2,2,0,0,0,4,0V37H22v6a2,2,0,0,0,4,0V37H38v6a2,2,0,0,0,4,0V35A2,2,0,0,0,40,33Z" />
</symbol>
<symbol id="people" viewBox="0 0 24 24">
  <path
    d="M18.0003 7.91002C17.9703 7.91002 17.9503 7.91002 17.9203 7.91002H17.8703C15.9803 7.85002 14.5703 6.39001 14.5703 4.59001C14.5703 2.75001 16.0703 1.26001 17.9003 1.26001C19.7303 1.26001 21.2303 2.76001 21.2303 4.59001C21.2203 6.40001 19.8103 7.86001 18.0103 7.92001C18.0103 7.91001 18.0103 7.91002 18.0003 7.91002ZM17.9003 2.75002C16.8903 2.75002 16.0703 3.57002 16.0703 4.58002C16.0703 5.57002 16.8403 6.37002 17.8303 6.41002C17.8403 6.40002 17.9203 6.40002 18.0103 6.41002C18.9803 6.36002 19.7303 5.56002 19.7403 4.58002C19.7403 3.57002 18.9203 2.75002 17.9003 2.75002Z" />
  <path
    d="M18.0105 15.2801C17.6205 15.2801 17.2305 15.2501 16.8405 15.1801C16.4305 15.1101 16.1605 14.7201 16.2305 14.3101C16.3005 13.9001 16.6905 13.6301 17.1005 13.7001C18.3305 13.9101 19.6305 13.6802 20.5005 13.1002C20.9705 12.7902 21.2205 12.4001 21.2205 12.0101C21.2205 11.6201 20.9605 11.2401 20.5005 10.9301C19.6305 10.3501 18.3105 10.1201 17.0705 10.3401C16.6605 10.4201 16.2705 10.1401 16.2005 9.73015C16.1305 9.32015 16.4005 8.93015 16.8105 8.86015C18.4405 8.57015 20.1305 8.88014 21.3305 9.68014C22.2105 10.2701 22.7205 11.1101 22.7205 12.0101C22.7205 12.9001 22.2205 13.7502 21.3305 14.3502C20.4205 14.9502 19.2405 15.2801 18.0105 15.2801Z" />
  <path
    d="M5.97047 7.91C5.96047 7.91 5.95047 7.91 5.95047 7.91C4.15047 7.85 2.74047 6.39 2.73047 4.59C2.73047 2.75 4.23047 1.25 6.06047 1.25C7.89047 1.25 9.39047 2.75 9.39047 4.58C9.39047 6.39 7.98047 7.85 6.18047 7.91L5.97047 7.16L6.04047 7.91C6.02047 7.91 5.99047 7.91 5.97047 7.91ZM6.07047 6.41C6.13047 6.41 6.18047 6.41 6.24047 6.42C7.13047 6.38 7.91047 5.58 7.91047 4.59C7.91047 3.58 7.09047 2.75999 6.08047 2.75999C5.07047 2.75999 4.25047 3.58 4.25047 4.59C4.25047 5.57 5.01047 6.36 5.98047 6.42C5.99047 6.41 6.03047 6.41 6.07047 6.41Z" />
  <path
    d="M5.96 15.2801C4.73 15.2801 3.55 14.9502 2.64 14.3502C1.76 13.7602 1.25 12.9101 1.25 12.0101C1.25 11.1201 1.76 10.2701 2.64 9.68014C3.84 8.88014 5.53 8.57015 7.16 8.86015C7.57 8.93015 7.84 9.32015 7.77 9.73015C7.7 10.1401 7.31 10.4201 6.9 10.3401C5.66 10.1201 4.35 10.3501 3.47 10.9301C3 11.2401 2.75 11.6201 2.75 12.0101C2.75 12.4001 3.01 12.7902 3.47 13.1002C4.34 13.6802 5.64 13.9101 6.87 13.7001C7.28 13.6301 7.67 13.9101 7.74 14.3101C7.81 14.7201 7.54 15.1101 7.13 15.1801C6.74 15.2501 6.35 15.2801 5.96 15.2801Z" />
  <path
    d="M12.0003 15.38C11.9703 15.38 11.9503 15.38 11.9203 15.38H11.8703C9.98031 15.32 8.57031 13.86 8.57031 12.06C8.57031 10.22 10.0703 8.72998 11.9003 8.72998C13.7303 8.72998 15.2303 10.23 15.2303 12.06C15.2203 13.87 13.8103 15.33 12.0103 15.39C12.0103 15.38 12.0103 15.38 12.0003 15.38ZM11.9003 10.22C10.8903 10.22 10.0703 11.04 10.0703 12.05C10.0703 13.04 10.8403 13.84 11.8303 13.88C11.8403 13.87 11.9203 13.87 12.0103 13.88C12.9803 13.83 13.7303 13.03 13.7403 12.05C13.7403 11.05 12.9203 10.22 11.9003 10.22Z" />
  <path
    d="M11.9993 22.76C10.7993 22.76 9.5993 22.45 8.6693 21.82C7.7893 21.23 7.2793 20.39 7.2793 19.49C7.2793 18.6 7.7793 17.74 8.6693 17.15C10.5393 15.91 13.4693 15.91 15.3293 17.15C16.2093 17.74 16.7193 18.58 16.7193 19.48C16.7193 20.37 16.2193 21.23 15.3293 21.82C14.3993 22.44 13.1993 22.76 11.9993 22.76ZM9.4993 18.41C9.0293 18.72 8.7793 19.11 8.7793 19.5C8.7793 19.89 9.0393 20.27 9.4993 20.58C10.8493 21.49 13.1393 21.49 14.4893 20.58C14.9593 20.27 15.2093 19.88 15.2093 19.49C15.2093 19.1 14.9493 18.72 14.4893 18.41C13.1493 17.5 10.8593 17.51 9.4993 18.41Z" />
</symbol>
<symbol id="presentation-chart" viewBox="0 0 24 24">
  <path
    d="M18.1 17.75H5.89999C3.57999 17.75 2.25 16.42 2.25 14.1V2C2.25 1.59 2.59 1.25 3 1.25H21C21.41 1.25 21.75 1.59 21.75 2V14.1C21.75 16.42 20.42 17.75 18.1 17.75ZM3.75 2.75V14.1C3.75 15.59 4.40999 16.25 5.89999 16.25H18.09C19.58 16.25 20.24 15.59 20.24 14.1V2.75H3.75Z" />
  <path
    d="M22 2.75H2C1.59 2.75 1.25 2.41 1.25 2C1.25 1.59 1.59 1.25 2 1.25H22C22.41 1.25 22.75 1.59 22.75 2C22.75 2.41 22.41 2.75 22 2.75Z" />
  <path
    d="M8.00027 22.75C7.72027 22.75 7.46025 22.6 7.33025 22.34C7.14025 21.97 7.29028 21.52 7.67028 21.33L11.2503 19.54V17C11.2503 16.59 11.5903 16.25 12.0003 16.25C12.4103 16.25 12.7503 16.59 12.7503 17V20C12.7503 20.28 12.5903 20.54 12.3303 20.67L8.33025 22.67C8.23025 22.72 8.11027 22.75 8.00027 22.75Z" />
  <path
    d="M15.9999 22.7502C15.8899 22.7502 15.77 22.7202 15.67 22.6702L11.67 20.6702C11.3 20.4802 11.1499 20.0302 11.3299 19.6602C11.5199 19.2902 11.9699 19.1402 12.3399 19.3202L16.3399 21.3202C16.7099 21.5102 16.8599 21.9602 16.6799 22.3302C16.5399 22.6002 16.2699 22.7502 15.9999 22.7502Z" />
  <path
    d="M7.49993 11.7502C7.28993 11.7502 7.06994 11.6602 6.91994 11.4802C6.64994 11.1602 6.69992 10.6902 7.01992 10.4202L10.1699 7.79018C10.4599 7.55018 10.8299 7.45018 11.1799 7.51018C11.5399 7.57018 11.8499 7.79016 12.0399 8.11016L13.0899 9.86016L16.0199 7.42019C16.3399 7.16019 16.8099 7.20016 17.0799 7.52016C17.3499 7.84016 17.2999 8.31016 16.9799 8.58016L13.8299 11.2102C13.5399 11.4502 13.1699 11.5502 12.8199 11.4902C12.4599 11.4302 12.1499 11.2102 11.9599 10.8902L10.9099 9.14019L7.97994 11.5802C7.83994 11.6902 7.66993 11.7502 7.49993 11.7502Z" />
</symbol>
<symbol id="profile" viewBox="0 0 24 24">
    <path
        d="M12 17c3.662 0 6.865 1.575 8.607 3.925l-1.842.871C17.347 20.116 14.847 19 12 19c-2.847 0-5.347 1.116-6.765 2.796l-1.841-.872C5.136 18.574 8.338 17 12 17zm0-15a5 5 0 0 1 5 5v3a5 5 0 0 1-10 0V7a5 5 0 0 1 5-5z" />

</symbol>
<symbol id="pulse" viewBox="0 0 14 14">
  <path
    d="m 1.0000001,8.03655 4.1557175,0.3211 0.3990269,-0.6325 1.0900243,3.3479 1.6739659,-4.6131 0.9343066,2.2092 L 13,8.07545 10.002433,7.62775 8.2408757,2.92695 6.6058393,8.50365 5.6618004,6.18735 4.8540146,7.82235 Z" />
</symbol>
<symbol id="recent" viewBox="0 0 122.88 122.88">
  <path fill-rule="evenodd"
    d="M61.44,0A61.44,61.44,0,1,1,0,61.44,61.44,61.44,0,0,1,61.44,0ZM52.92,30.52h7.51a2.51,2.51,0,0,1,2.5,2.5V62H89.34a2.51,2.51,0,0,1,2.5,2.5V72a2.51,2.51,0,0,1-2.5,2.5H50.41V33a2.51,2.51,0,0,1,2.51-2.5Z" />
</symbol>
<symbol id="recycle" viewBox="0 0 24 24">
  <path
    d="M5.755,20.283,4,8H20L18.245,20.283A2,2,0,0,1,16.265,22H7.735A2,2,0,0,1,5.755,20.283ZM21,4H16V3a1,1,0,0,0-1-1H9A1,1,0,0,0,8,3V4H3A1,1,0,0,0,3,6H21a1,1,0,0,0,0-2Z" />
</symbol>
<symbol id="redo" viewBox="0 0 24 24">
  <path
    d="M16.8691 19.0601H8.86914C5.69914 19.0601 3.11914 16.4801 3.11914 13.3101C3.11914 10.1401 5.69914 7.56006 8.86914 7.56006H19.8691C20.2791 7.56006 20.6191 7.90006 20.6191 8.31006C20.6191 8.72006 20.2791 9.06006 19.8691 9.06006H8.86914C6.52914 9.06006 4.61914 10.9701 4.61914 13.3101C4.61914 15.6501 6.52914 17.5601 8.86914 17.5601H16.8691C17.2791 17.5601 17.6191 17.9001 17.6191 18.3101C17.6191 18.7201 17.2891 19.0601 16.8691 19.0601Z" />
  <path
    d="M17.5698 11.5599C17.3798 11.5599 17.1898 11.4899 17.0398 11.3399C16.7498 11.0499 16.7498 10.5699 17.0398 10.2799L19.0698 8.24988L17.0398 6.21988C16.7498 5.92988 16.7498 5.44988 17.0398 5.15988C17.3298 4.86988 17.8098 4.86988 18.0998 5.15988L20.6598 7.71988C20.9498 8.00988 20.9498 8.48988 20.6598 8.77988L18.0998 11.3399C17.9498 11.4899 17.7598 11.5599 17.5698 11.5599Z" />
</symbol>
<symbol id="refresh-circle" viewBox="0 0 24 24">
  <path
    d="M12 22.75C6.07 22.75 1.25 17.93 1.25 12C1.25 6.07 6.07 1.25 12 1.25C17.93 1.25 22.75 6.07 22.75 12C22.75 17.93 17.93 22.75 12 22.75ZM12 2.75C6.9 2.75 2.75 6.9 2.75 12C2.75 17.1 6.9 21.25 12 21.25C17.1 21.25 21.25 17.1 21.25 12C21.25 6.9 17.1 2.75 12 2.75Z" />
  <path
    d="M11.9995 17.4701C10.5995 17.4701 9.19946 16.9401 8.12946 15.8701C7.84946 15.5901 7.59945 15.2801 7.36945 14.9101C7.14945 14.5601 7.25944 14.1001 7.60944 13.8801C7.95944 13.6601 8.41947 13.7701 8.63947 14.1201C8.80947 14.4001 8.98945 14.6201 9.18945 14.8201C10.7395 16.3701 13.2594 16.3701 14.8094 14.8201C15.4094 14.2201 15.7895 13.4401 15.9195 12.5701C15.9795 12.1601 16.3594 11.8601 16.7694 11.9301C17.1794 11.9901 17.4595 12.3701 17.4095 12.7801C17.2395 13.9701 16.7095 15.0401 15.8795 15.8801C14.7995 16.9401 13.3995 17.4701 11.9995 17.4701Z" />
  <path
    d="M7.3399 12.08C7.2999 12.08 7.26991 12.08 7.22991 12.07C6.81991 12.01 6.5299 11.6299 6.5899 11.2199C6.7599 10.0299 7.2899 8.95996 8.1199 8.11996C10.2499 5.98996 13.7199 5.98996 15.8599 8.11996C16.1399 8.39996 16.3899 8.70999 16.6199 9.08999C16.8399 9.43999 16.7299 9.89996 16.3799 10.12C16.0299 10.34 15.5699 10.23 15.3499 9.87997C15.1799 9.60997 14.9999 9.37996 14.7999 9.17996C13.2499 7.62996 10.7299 7.62996 9.17989 9.17996C8.57989 9.77996 8.19991 10.56 8.06991 11.43C8.02991 11.81 7.7099 12.08 7.3399 12.08Z" />
  <path
    d="M7.82031 17.93C7.41031 17.93 7.07031 17.59 7.07031 17.18V14.51C7.07031 14.1 7.41031 13.76 7.82031 13.76H10.4903C10.9003 13.76 11.2403 14.1 11.2403 14.51C11.2403 14.92 10.9003 15.26 10.4903 15.26H8.57031V17.18C8.57031 17.59 8.24031 17.93 7.82031 17.93Z" />
  <path
    d="M16.1797 10.2401H13.5098C13.0998 10.2401 12.7598 9.90005 12.7598 9.49005C12.7598 9.08005 13.0998 8.74005 13.5098 8.74005H15.4297V6.82007C15.4297 6.41007 15.7697 6.07007 16.1797 6.07007C16.5897 6.07007 16.9297 6.41007 16.9297 6.82007V9.49005C16.9297 9.91005 16.5897 10.2401 16.1797 10.2401Z" />

</symbol>
<symbol id="save" viewBox="0 0 24 24">
  <path
    d="M17,20.75H7A2.75,2.75,0,0,1,4.25,18V6A2.75,2.75,0,0,1,7,3.25h7.5a.75.75,0,0,1,.53.22L19.53,8a.75.75,0,0,1,.22.53V18A2.75,2.75,0,0,1,17,20.75ZM7,4.75A1.25,1.25,0,0,0,5.75,6V18A1.25,1.25,0,0,0,7,19.25H17A1.25,1.25,0,0,0,18.25,18V8.81L14.19,4.75Z" />
  <path d="M16.75,20h-1.5V13.75H8.75V20H7.25V13.5A1.25,1.25,0,0,1,8.5,12.25h7a1.25,1.25,0,0,1,1.25,1.25Z" />
  <path d="M12.47,8.75H8.53a1.29,1.29,0,0,1-1.28-1.3V4h1.5V7.25h3.5V4h1.5V7.45A1.29,1.29,0,0,1,12.47,8.75Z" />
</symbol>
<symbol id="save2" viewBox="0 0 24 24">
  <path
    d="M18.1716 1C18.702 1 19.2107 1.21071 19.5858 1.58579L22.4142 4.41421C22.7893 4.78929 23 5.29799 23 5.82843V20C23 21.6569 21.6569 23 20 23H4C2.34315 23 1 21.6569 1 20V4C1 2.34315 2.34315 1 4 1H18.1716ZM4 3C3.44772 3 3 3.44772 3 4V20C3 20.5523 3.44772 21 4 21L5 21L5 15C5 13.3431 6.34315 12 8 12L16 12C17.6569 12 19 13.3431 19 15V21H20C20.5523 21 21 20.5523 21 20V6.82843C21 6.29799 20.7893 5.78929 20.4142 5.41421L18.5858 3.58579C18.2107 3.21071 17.702 3 17.1716 3H17V5C17 6.65685 15.6569 8 14 8H10C8.34315 8 7 6.65685 7 5V3H4ZM17 21V15C17 14.4477 16.5523 14 16 14L8 14C7.44772 14 7 14.4477 7 15L7 21L17 21ZM9 3H15V5C15 5.55228 14.5523 6 14 6H10C9.44772 6 9 5.55228 9 5V3Z" />
</symbol>
<symbol id="settings" viewBox="0 0 24 24">
  <path fill-rule="evenodd" clip-rule="evenodd"
    d="m4.929 4.93.001-.002.002.001.527-.528a.575.575 0 0 1 .786-.025l1.21 1.061c.332.305.774.492 1.26.492.514 0 .98-.21 1.316-.548.318-.32.52-.754.539-1.235h.004l.105-1.607a.575.575 0 0 1 .574-.537h.746V2v.002h.747c.303 0 .554.235.574.537l.105 1.607h.005c.019.484.223.92.544 1.24.336.335.8.543 1.312.543.492 0 .94-.192 1.272-.504l1.196-1.05a.575.575 0 0 1 .786.026l.528.528.002-.002v.002l-.001.002.528.527a.575.575 0 0 1 .026.786l-1.06 1.212a1.85 1.85 0 0 0-.492 1.258c0 .515.21.98.548 1.317.32.318.753.52 1.235.539v.004l1.606.105c.303.02.538.271.538.574V12H22v.002h-.002v.746a.575.575 0 0 1-.537.574l-1.607.107v.001c-.484.02-.92.223-1.24.544-.335.336-.543.8-.543 1.312 0 .486.187.928.493 1.26h-.002l1.062 1.211c.2.228.188.572-.026.786l-.528.528v.002h-.001l-.528.527a.575.575 0 0 1-.785.026l-1.168-1.021a1.851 1.851 0 0 0-1.302-.534c-.515 0-.98.21-1.317.548-.318.32-.52.755-.54 1.238h-.004l-.105 1.607a.575.575 0 0 1-.54.536H11.22a.575.575 0 0 1-.54-.536l-.105-1.607h-.004a1.851 1.851 0 0 0-.545-1.244 1.851 1.851 0 0 0-1.31-.542c-.504 0-.96.2-1.295.526l-1.177 1.03a.575.575 0 0 1-.785-.027l-.528-.528-.001-.001-.528-.528a.575.575 0 0 1-.026-.786l1.062-1.21-.001-.001a1.85 1.85 0 0 0 .493-1.26c0-.515-.21-.98-.548-1.317a1.85 1.85 0 0 0-1.236-.539v-.001l-1.607-.107a.575.575 0 0 1-.537-.574v-.746H2V12h.001v-.747c0-.303.235-.554.538-.574l1.606-.105v-.004a1.851 1.851 0 0 0 1.242-.545c.335-.336.542-.8.542-1.31 0-.49-.19-.935-.499-1.267L4.376 6.244a.575.575 0 0 1 .026-.786l.528-.527-.001-.002zM16.286 12a4.286 4.286 0 1 1-8.572 0 4.286 4.286 0 0 1 8.572 0z" />
</symbol>
<symbol id="statistics" viewBox="0 0 294 294">
	<g>
		<path d="M279,250H15c-8.284,0-15,6.716-15,15s6.716,15,15,15h264c8.284,0,15-6.716,15-15S287.284,250,279,250z" />
		<path d="M30.5,228h47c5.247,0,9.5-4.253,9.5-9.5v-130c0-5.247-4.253-9.5-9.5-9.5h-47c-5.247,0-9.5,4.253-9.5,9.5v130
		C21,223.747,25.253,228,30.5,228z" />
		<path d="M123.5,228h47c5.247,0,9.5-4.253,9.5-9.5v-195c0-5.247-4.253-9.5-9.5-9.5h-47c-5.247,0-9.5,4.253-9.5,9.5v195
		C114,223.747,118.253,228,123.5,228z" />
		<path d="M216.5,228h47c5.247,0,9.5-4.253,9.5-9.5v-105c0-5.247-4.253-9.5-9.5-9.5h-47c-5.247,0-9.5,4.253-9.5,9.5v105
		C207,223.747,211.253,228,216.5,228z" />
	</g>
</symbol>
<symbol id="success" viewBox="0 0 16 12">
  <path
    d="M14.9709 1.15766C15.2345 1.42127 15.2345 1.84865 14.9709 2.11226L5.81507 11.2681L0.998484 6.45154C0.73488 6.18794 0.73488 5.76055 0.998484 5.49695C1.26209 5.23335 1.68947 5.23335 1.95308 5.49695L5.81507 9.35894L14.0163 1.15766C14.2799 0.89406 14.7073 0.89406 14.9709 1.15766Z" />
</symbol>
<symbol id="sun" viewBox="0 0 512 512">

	<path d="M256,118.125c-76.156,0-137.875,61.719-137.875,137.875S179.844,393.875,256,393.875
		S393.875,332.156,393.875,256S332.156,118.125,256,118.125z" />
	<rect x="235.906" width="40.156" height="77.297" />
	<rect x="235.906" y="434.703" width="40.156" height="77.297" />

	<rect x="63.657" y="82.229" transform="matrix(0.7071 0.7071 -0.7071 0.7071 102.3047 -42.376)" width="77.296"
		height="40.15" />
	<polygon points="368.156,396.547 422.828,451.219 451.219,422.813 396.563,368.156 	" />
	<rect y="235.906" width="77.281" height="40.156" />
	<polygon points="434.688,235.922 434.688,276.078 512,276.063 512,235.906 	" />
	<polygon points="60.781,422.813 89.156,451.219 143.813,396.547 115.438,368.156 	" />
	<polygon points="451.219,89.156 422.813,60.781 368.156,115.438 396.563,143.844 	" />
</symbol>
<symbol id="tag" viewBox="0 0 24 24">
  <path fill-rule="evenodd" clip-rule="evenodd"
    d="M2.678 11.422a2.5 2.5 0 0 0 0 3.536l6.364 6.364a2.5 2.5 0 0 0 3.536 0l7.69-7.69A2.5 2.5 0 0 0 21 11.864V4.5A1.5 1.5 0 0 0 19.5 3h-7.365a2.5 2.5 0 0 0-1.768.732l-7.69 7.69zM14.988 7C13.878 7 13 7.832 13 8.988c0 1.157.878 2.012 1.988 2.012C16.121 11 17 10.145 17 8.988 17 7.832 16.12 7 14.988 7z" />
</symbol>
<symbol id="task-square" viewBox="0 0 24 24">
  <path
    d="M17.6191 9.62012H12.3691C11.9591 9.62012 11.6191 9.28012 11.6191 8.87012C11.6191 8.46012 11.9591 8.12012 12.3691 8.12012H17.6191C18.0291 8.12012 18.3691 8.46012 18.3691 8.87012C18.3691 9.28012 18.0391 9.62012 17.6191 9.62012Z" />
  <path
    d="M7.12055 10.3798C6.93055 10.3798 6.74055 10.3098 6.59055 10.1598L5.84055 9.40982C5.55055 9.11982 5.55055 8.63982 5.84055 8.34982C6.13055 8.05982 6.61055 8.05982 6.90055 8.34982L7.12055 8.56982L8.84055 6.84982C9.13055 6.55982 9.61055 6.55982 9.90055 6.84982C10.1905 7.13982 10.1905 7.61982 9.90055 7.90982L7.65055 10.1598C7.51055 10.2998 7.32055 10.3798 7.12055 10.3798Z" />
  <path
    d="M17.6191 16.6201H12.3691C11.9591 16.6201 11.6191 16.2801 11.6191 15.8701C11.6191 15.4601 11.9591 15.1201 12.3691 15.1201H17.6191C18.0291 15.1201 18.3691 15.4601 18.3691 15.8701C18.3691 16.2801 18.0391 16.6201 17.6191 16.6201Z" />
  <path
    d="M7.12055 17.3798C6.93055 17.3798 6.74055 17.3098 6.59055 17.1598L5.84055 16.4098C5.55055 16.1198 5.55055 15.6398 5.84055 15.3498C6.13055 15.0598 6.61055 15.0598 6.90055 15.3498L7.12055 15.5698L8.84055 13.8498C9.13055 13.5598 9.61055 13.5598 9.90055 13.8498C10.1905 14.1398 10.1905 14.6198 9.90055 14.9098L7.65055 17.1598C7.51055 17.2998 7.32055 17.3798 7.12055 17.3798Z" />
  <path
    d="M15 22.75H9C3.57 22.75 1.25 20.43 1.25 15V9C1.25 3.57 3.57 1.25 9 1.25H15C20.43 1.25 22.75 3.57 22.75 9V15C22.75 20.43 20.43 22.75 15 22.75ZM9 2.75C4.39 2.75 2.75 4.39 2.75 9V15C2.75 19.61 4.39 21.25 9 21.25H15C19.61 21.25 21.25 19.61 21.25 15V9C21.25 4.39 19.61 2.75 15 2.75H9Z" />
</symbol>
<symbol id="text" viewBox="0 0 24 24">
  <path
    d="M21.3299 7.91979C20.9199 7.91979 20.5799 7.57979 20.5799 7.16979V5.34979C20.5799 4.61979 19.9899 4.02979 19.2599 4.02979H4.73992C4.00992 4.02979 3.41992 4.61979 3.41992 5.34979V7.17978C3.41992 7.58978 3.07992 7.92978 2.66992 7.92978C2.25992 7.92978 1.91992 7.58979 1.91992 7.16979V5.34979C1.91992 3.78979 3.18992 2.52979 4.73992 2.52979H19.2599C20.8199 2.52979 22.0799 3.79979 22.0799 5.34979V7.17978C22.0799 7.58978 21.7499 7.91979 21.3299 7.91979Z" />
  <path
    d="M12 21.4699C11.59 21.4699 11.25 21.1299 11.25 20.7199V4.10986C11.25 3.69986 11.59 3.35986 12 3.35986C12.41 3.35986 12.75 3.69986 12.75 4.10986V20.7199C12.75 21.1399 12.41 21.4699 12 21.4699Z" />
  <path
    d="M15.9405 21.4702H8.06055C7.65055 21.4702 7.31055 21.1302 7.31055 20.7202C7.31055 20.3102 7.65055 19.9702 8.06055 19.9702H15.9405C16.3505 19.9702 16.6905 20.3102 16.6905 20.7202C16.6905 21.1302 16.3505 21.4702 15.9405 21.4702Z" />
</symbol>
<symbol id="trash" viewBox="0 0 24 24">
  <path
    d="M20.9997 6.72998C20.9797 6.72998 20.9497 6.72998 20.9197 6.72998C15.6297 6.19998 10.3497 5.99998 5.11967 6.52998L3.07967 6.72998C2.65967 6.76998 2.28967 6.46998 2.24967 6.04998C2.20967 5.62998 2.50967 5.26998 2.91967 5.22998L4.95967 5.02998C10.2797 4.48998 15.6697 4.69998 21.0697 5.22998C21.4797 5.26998 21.7797 5.63998 21.7397 6.04998C21.7097 6.43998 21.3797 6.72998 20.9997 6.72998Z" />
  <path
    d="M8.50074 5.72C8.46074 5.72 8.42074 5.72 8.37074 5.71C7.97074 5.64 7.69074 5.25 7.76074 4.85L7.98074 3.54C8.14074 2.58 8.36074 1.25 10.6907 1.25H13.3107C15.6507 1.25 15.8707 2.63 16.0207 3.55L16.2407 4.85C16.3107 5.26 16.0307 5.65 15.6307 5.71C15.2207 5.78 14.8307 5.5 14.7707 5.1L14.5507 3.8C14.4107 2.93 14.3807 2.76 13.3207 2.76H10.7007C9.64074 2.76 9.62074 2.9 9.47074 3.79L9.24074 5.09C9.18074 5.46 8.86074 5.72 8.50074 5.72Z" />
  <path
    d="M15.2104 22.7501H8.79039C5.30039 22.7501 5.16039 20.8201 5.05039 19.2601L4.40039 9.19007C4.37039 8.78007 4.69039 8.42008 5.10039 8.39008C5.52039 8.37008 5.87039 8.68008 5.90039 9.09008L6.55039 19.1601C6.66039 20.6801 6.70039 21.2501 8.79039 21.2501H15.2104C17.3104 21.2501 17.3504 20.6801 17.4504 19.1601L18.1004 9.09008C18.1304 8.68008 18.4904 8.37008 18.9004 8.39008C19.3104 8.42008 19.6304 8.77007 19.6004 9.19007L18.9504 19.2601C18.8404 20.8201 18.7004 22.7501 15.2104 22.7501Z" />
  <path
    d="M13.6601 17.25H10.3301C9.92008 17.25 9.58008 16.91 9.58008 16.5C9.58008 16.09 9.92008 15.75 10.3301 15.75H13.6601C14.0701 15.75 14.4101 16.09 14.4101 16.5C14.4101 16.91 14.0701 17.25 13.6601 17.25Z" />
  <path
    d="M14.5 13.25H9.5C9.09 13.25 8.75 12.91 8.75 12.5C8.75 12.09 9.09 11.75 9.5 11.75H14.5C14.91 11.75 15.25 12.09 15.25 12.5C15.25 12.91 14.91 13.25 14.5 13.25Z" />
</symbol>
<symbol id="undo" viewBox="0 0 24 24">
  <path
    d="M15.1309 19.0601H7.13086C6.72086 19.0601 6.38086 18.7201 6.38086 18.3101C6.38086 17.9001 6.72086 17.5601 7.13086 17.5601H15.1309C17.4709 17.5601 19.3809 15.6501 19.3809 13.3101C19.3809 10.9701 17.4709 9.06006 15.1309 9.06006H4.13086C3.72086 9.06006 3.38086 8.72006 3.38086 8.31006C3.38086 7.90006 3.72086 7.56006 4.13086 7.56006H15.1309C18.3009 7.56006 20.8809 10.1401 20.8809 13.3101C20.8809 16.4801 18.3009 19.0601 15.1309 19.0601Z" />
  <path
    d="M6.43055 11.5599C6.24055 11.5599 6.05055 11.4899 5.90055 11.3399L3.34055 8.77988C3.05055 8.48988 3.05055 8.00988 3.34055 7.71988L5.90055 5.15988C6.19055 4.86988 6.67055 4.86988 6.96055 5.15988C7.25055 5.44988 7.25055 5.92988 6.96055 6.21988L4.93055 8.24988L6.96055 10.2799C7.25055 10.5699 7.25055 11.0499 6.96055 11.3399C6.82055 11.4899 6.62055 11.5599 6.43055 11.5599Z" />
</symbol>
<symbol id="upload" viewBox="0 0 24 24">
  <path
    d="M12.5535 2.49392C12.4114 2.33852 12.2106 2.25 12 2.25C11.7894 2.25 11.5886 2.33852 11.4465 2.49392L7.44648 6.86892C7.16698 7.17462 7.18822 7.64902 7.49392 7.92852C7.79963 8.20802 8.27402 8.18678 8.55352 7.88108L11.25 4.9318V16C11.25 16.4142 11.5858 16.75 12 16.75C12.4142 16.75 12.75 16.4142 12.75 16V4.9318L15.4465 7.88108C15.726 8.18678 16.2004 8.20802 16.5061 7.92852C16.8118 7.64902 16.833 7.17462 16.5535 6.86892L12.5535 2.49392Z" />
  <path
    d="M3.75 15C3.75 14.5858 3.41422 14.25 3 14.25C2.58579 14.25 2.25 14.5858 2.25 15V15.0549C2.24998 16.4225 2.24996 17.5248 2.36652 18.3918C2.48754 19.2919 2.74643 20.0497 3.34835 20.6516C3.95027 21.2536 4.70814 21.5125 5.60825 21.6335C6.47522 21.75 7.57754 21.75 8.94513 21.75H15.0549C16.4225 21.75 17.5248 21.75 18.3918 21.6335C19.2919 21.5125 20.0497 21.2536 20.6517 20.6516C21.2536 20.0497 21.5125 19.2919 21.6335 18.3918C21.75 17.5248 21.75 16.4225 21.75 15.0549V15C21.75 14.5858 21.4142 14.25 21 14.25C20.5858 14.25 20.25 14.5858 20.25 15C20.25 16.4354 20.2484 17.4365 20.1469 18.1919C20.0482 18.9257 19.8678 19.3142 19.591 19.591C19.3142 19.8678 18.9257 20.0482 18.1919 20.1469C17.4365 20.2484 16.4354 20.25 15 20.25H9C7.56459 20.25 6.56347 20.2484 5.80812 20.1469C5.07435 20.0482 4.68577 19.8678 4.40901 19.591C4.13225 19.3142 3.9518 18.9257 3.85315 18.1919C3.75159 17.4365 3.75 16.4354 3.75 15Z" />

</symbol>
<symbol id="user" viewBox="0 0 24 24">
  <circle cx="12" cy="6" r="4" />
  <path
    d="M20 17.5C20 19.9853 20 22 12 22C4 22 4 19.9853 4 17.5C4 15.0147 7.58172 13 12 13C16.4183 13 20 15.0147 20 17.5Z" />
</symbol>
<symbol id="video-play" viewBox="0 0 24 24">
  <path
    d="M15 22.75H9C3.57 22.75 1.25 20.43 1.25 15V9C1.25 3.57 3.57 1.25 9 1.25H15C20.43 1.25 22.75 3.57 22.75 9V15C22.75 20.43 20.43 22.75 15 22.75ZM9 2.75C4.39 2.75 2.75 4.39 2.75 9V15C2.75 19.61 4.39 21.25 9 21.25H15C19.61 21.25 21.25 19.61 21.25 15V9C21.25 4.39 19.61 2.75 15 2.75H9Z" />
  <path
    d="M21.4795 7.85986H2.51953C2.10953 7.85986 1.76953 7.51986 1.76953 7.10986C1.76953 6.69986 2.09953 6.35986 2.51953 6.35986H21.4795C21.8895 6.35986 22.2295 6.69986 22.2295 7.10986C22.2295 7.51986 21.8995 7.85986 21.4795 7.85986Z" />
  <path
    d="M8.51953 7.71986C8.10953 7.71986 7.76953 7.37986 7.76953 6.96986V2.10986C7.76953 1.69986 8.10953 1.35986 8.51953 1.35986C8.92953 1.35986 9.26953 1.69986 9.26953 2.10986V6.96986C9.26953 7.37986 8.92953 7.71986 8.51953 7.71986Z" />
  <path
    d="M15.4805 7.26986C15.0705 7.26986 14.7305 6.92986 14.7305 6.51986V2.10986C14.7305 1.69986 15.0705 1.35986 15.4805 1.35986C15.8905 1.35986 16.2305 1.69986 16.2305 2.10986V6.51986C16.2305 6.93986 15.9005 7.26986 15.4805 7.26986Z" />
  <path
    d="M11.09 18.1198C10.73 18.1198 10.39 18.0298 10.08 17.8598C9.4 17.4598 9 16.6598 9 15.6498V13.2498C9 12.2398 9.4 11.4298 10.09 11.0298C10.78 10.6298 11.68 10.6898 12.55 11.1998L14.63 12.3998C15.5 12.8998 16.01 13.6498 16.01 14.4498C16.01 15.2498 15.5 15.9998 14.62 16.4998L12.54 17.6998C12.06 17.9798 11.56 18.1198 11.09 18.1198ZM11.1 12.2698C11 12.2698 10.91 12.2898 10.84 12.3298C10.63 12.4498 10.5 12.7898 10.5 13.2498V15.6498C10.5 16.0998 10.63 16.4398 10.84 16.5698C11.05 16.6898 11.41 16.6298 11.8 16.3998L13.88 15.1998C14.27 14.9698 14.51 14.6898 14.51 14.4498C14.51 14.2098 14.28 13.9298 13.88 13.6998L11.8 12.4998C11.54 12.3498 11.29 12.2698 11.1 12.2698Z" />
</symbol>
</svg>
