<svg viewBox="0 0 19 20" xmlns="http://www.w3.org/2000/svg">
  <path
    d="M3.5 11C2.95 11 2.5 11.45 2.5 12C2.5 12.55 2.95 13 3.5 13C4.05 13 4.5 12.55 4.5 12C4.5 11.45 4.05 11 3.5 11ZM3.5 15C2.95 15 2.5 15.45 2.5 16C2.5 16.55 2.95 17 3.5 17C4.05 17 4.5 16.55 4.5 16C4.5 15.45 4.05 15 3.5 15ZM3.5 7C2.95 7 2.5 7.45 2.5 8C2.5 8.55 2.95 9 3.5 9C4.05 9 4.5 8.55 4.5 8C4.5 7.45 4.05 7 3.5 7ZM0.5 7.5C0.22 7.5 0 7.72 0 8C0 8.28 0.22 8.5 0.5 8.5C0.78 8.5 1 8.28 1 8C1 7.72 0.78 7.5 0.5 7.5ZM3.5 3C2.95 3 2.5 3.45 2.5 4C2.5 4.55 2.95 5 3.5 5C4.05 5 4.5 4.55 4.5 4C4.5 3.45 4.05 3 3.5 3ZM18.5 8.5C18.78 8.5 19 8.28 19 8C19 7.72 18.78 7.5 18.5 7.5C18.22 7.5 18 7.72 18 8C18 8.28 18.22 8.5 18.5 8.5ZM11.5 5C12.05 5 12.5 4.55 12.5 4C12.5 3.45 12.05 3 11.5 3C10.95 3 10.5 3.45 10.5 4C10.5 4.55 10.95 5 11.5 5ZM11.5 1.5C11.78 1.5 12 1.28 12 1C12 0.72 11.78 0.5 11.5 0.5C11.22 0.5 11 0.72 11 1C11 1.28 11.22 1.5 11.5 1.5ZM0.5 11.5C0.22 11.5 0 11.72 0 12C0 12.28 0.22 12.5 0.5 12.5C0.78 12.5 1 12.28 1 12C1 11.72 0.78 11.5 0.5 11.5ZM7.5 18.5C7.22 18.5 7 18.72 7 19C7 19.28 7.22 19.5 7.5 19.5C7.78 19.5 8 19.28 8 19C8 18.72 7.78 18.5 7.5 18.5ZM7.5 1.5C7.78 1.5 8 1.28 8 1C8 0.72 7.78 0.5 7.5 0.5C7.22 0.5 7 0.72 7 1C7 1.28 7.22 1.5 7.5 1.5ZM7.5 5C8.05 5 8.5 4.55 8.5 4C8.5 3.45 8.05 3 7.5 3C6.95 3 6.5 3.45 6.5 4C6.5 4.55 6.95 5 7.5 5ZM7.5 10.5C6.67 10.5 6 11.17 6 12C6 12.83 6.67 13.5 7.5 13.5C8.33 13.5 9 12.83 9 12C9 11.17 8.33 10.5 7.5 10.5ZM15.5 11C14.95 11 14.5 11.45 14.5 12C14.5 12.55 14.95 13 15.5 13C16.05 13 16.5 12.55 16.5 12C16.5 11.45 16.05 11 15.5 11ZM15.5 15C14.95 15 14.5 15.45 14.5 16C14.5 16.55 14.95 17 15.5 17C16.05 17 16.5 16.55 16.5 16C16.5 15.45 16.05 15 15.5 15ZM15.5 7C14.95 7 14.5 7.45 14.5 8C14.5 8.55 14.95 9 15.5 9C16.05 9 16.5 8.55 16.5 8C16.5 7.45 16.05 7 15.5 7ZM15.5 3C14.95 3 14.5 3.45 14.5 4C14.5 4.55 14.95 5 15.5 5C16.05 5 16.5 4.55 16.5 4C16.5 3.45 16.05 3 15.5 3ZM18.5 11.5C18.22 11.5 18 11.72 18 12C18 12.28 18.22 12.5 18.5 12.5C18.78 12.5 19 12.28 19 12C19 11.72 18.78 11.5 18.5 11.5ZM11.5 15C10.95 15 10.5 15.45 10.5 16C10.5 16.55 10.95 17 11.5 17C12.05 17 12.5 16.55 12.5 16C12.5 15.45 12.05 15 11.5 15ZM11.5 18.5C11.22 18.5 11 18.72 11 19C11 19.28 11.22 19.5 11.5 19.5C11.78 19.5 12 19.28 12 19C12 18.72 11.78 18.5 11.5 18.5ZM7.5 6.5C6.67 6.5 6 7.17 6 8C6 8.83 6.67 9.5 7.5 9.5C8.33 9.5 9 8.83 9 8C9 7.17 8.33 6.5 7.5 6.5ZM7.5 15C6.95 15 6.5 15.45 6.5 16C6.5 16.55 6.95 17 7.5 17C8.05 17 8.5 16.55 8.5 16C8.5 15.45 8.05 15 7.5 15ZM11.5 10.5C10.67 10.5 10 11.17 10 12C10 12.83 10.67 13.5 11.5 13.5C12.33 13.5 13 12.83 13 12C13 11.17 12.33 10.5 11.5 10.5ZM11.5 6.5C10.67 6.5 10 7.17 10 8C10 8.83 10.67 9.5 11.5 9.5C12.33 9.5 13 8.83 13 8C13 7.17 12.33 6.5 11.5 6.5Z" />
</svg>