<svg viewBox="0 0 144 90" fill="none" xmlns="http://www.w3.org/2000/svg">
    <path
        d="M143.584 44.6443C143.584 69.2216 123.779 89.1421 99.3437 89.1421H68.6842C71.7281 87.4452 74.5782 85.4425 77.1949 83.1739C85.7055 75.8056 91.7537 65.6371 93.921 54.1039C95.5696 55.0612 97.4401 55.564 99.3437 55.5616C105.339 55.5616 110.198 50.6746 110.198 44.6443C110.198 38.6141 105.339 33.7226 99.3437 33.7226C97.4401 33.7202 95.5696 34.223 93.921 35.1803C90.6745 37.0678 88.4895 40.5947 88.4895 44.6399C88.4895 58.7385 81.97 71.3084 71.7942 79.461C66.953 83.3423 61.2881 86.2223 55.1033 87.7907C51.6277 88.6725 47.9935 89.1421 44.2448 89.1421C40.496 89.1421 36.8618 88.6725 33.3862 87.7907C14.202 82.9258 0 65.451 0 44.6443V20.0582L0.220255 19.6639C0.0748866 18.7733 0 17.8606 0 16.9301C0 7.66107 7.47104 0.142126 16.6909 0.142126C17.5999 0.141429 18.5074 0.215521 19.4044 0.363662C22.2105 0.824458 24.7831 1.98974 26.9372 3.67341C30.8621 6.74834 33.3818 11.5424 33.3818 16.9301V44.6443C33.3818 50.6746 38.245 55.5616 44.2404 55.5616C50.2357 55.5616 55.0989 50.6746 55.0989 44.6443V16.9301C55.0989 11.5424 57.623 6.74391 61.548 3.67341C63.6977 1.98531 66.2702 0.820027 69.0763 0.359232C69.9617 0.213018 70.8692 0.137695 71.7898 0.137695H99.3437C123.774 0.142126 143.584 20.0627 143.584 44.6443Z"
        fill="url(#paint7_linear_1_5803)" />
    <defs>
        <linearGradient id="paint7_linear_1_5803" x1="6.79089" y1="44.6426" x2="297.376" y2="44.6426"
            gradientUnits="userSpaceOnUse">
            <stop stop-color="#0063DD" />
            <stop offset="0.5" stop-color="#008CFF" />
            <stop offset="1" stop-color="#0063DD" />
        </linearGradient>
    </defs>
</svg>