<svg width="303" height="90" viewBox="0 0 303 90" fill="none" xmlns="http://www.w3.org/2000/svg">
    <g clip-path="url(#clip0_1_5803)">
        <path
            d="M192.393 0.310547C190.098 0.310547 188.235 2.18474 188.235 4.49315V17.8784C188.235 22.9516 184.129 27.081 179.085 27.081C174.042 27.081 169.936 22.9516 169.936 17.8784V4.49315C169.936 2.18474 168.073 0.310547 165.778 0.310547C163.482 0.310547 161.619 2.18474 161.619 4.49315V17.8784C161.619 27.5639 169.451 35.4462 179.085 35.4462C188.719 35.4462 196.552 27.5684 196.552 17.8784V4.49315C196.552 3.94388 196.444 3.4 196.235 2.89254C196.026 2.38508 195.72 1.92399 195.334 1.5356C194.947 1.14721 194.489 0.839124 193.984 0.628929C193.48 0.418733 192.939 0.310547 192.393 0.310547Z"
            fill="url(#paint0_linear_1_5803)" />
        <path
            d="M258.923 35.4418C261.218 35.4418 263.082 33.5676 263.082 31.2592C263.082 28.9508 261.218 27.0766 258.923 27.0766C253.879 27.0766 249.774 22.9472 249.774 17.874C249.774 12.8008 253.879 8.67136 258.923 8.67136C263.967 8.67136 268.073 12.8008 268.073 17.874V31.2592C268.073 33.5676 269.936 35.4418 272.231 35.4418C274.526 35.4418 276.389 33.5676 276.389 31.2592V17.874C276.389 8.18842 268.557 0.306152 258.923 0.306152C249.289 0.306152 241.457 8.18398 241.457 17.874C241.457 27.564 249.294 35.4418 258.923 35.4418Z"
            fill="url(#paint1_linear_1_5803)" />
        <path
            d="M258.922 53.8423C249.293 53.8423 241.456 61.7201 241.456 71.4101C241.456 76.4833 237.351 80.6127 232.307 80.6127C230.012 80.6127 228.148 82.4869 228.148 84.7953C228.148 87.1037 230.012 88.9779 232.307 88.9779C241.936 88.9779 249.773 81.1001 249.773 71.4101C249.773 66.3369 253.879 62.2075 258.922 62.2075C261.218 62.2075 263.081 60.3333 263.081 58.0249C263.081 55.7165 261.218 53.8423 258.922 53.8423Z"
            fill="url(#paint2_linear_1_5803)" />
        <path
            d="M192.393 40.4619C190.098 40.4619 188.235 42.3361 188.235 44.6445V58.0297V71.415C188.235 76.4882 184.129 80.6176 179.085 80.6176C174.042 80.6176 169.936 76.4882 169.936 71.415C169.936 66.3418 174.042 62.2123 179.085 62.2123C181.38 62.2123 183.244 60.3382 183.244 58.0297C183.244 55.7213 181.38 53.8471 179.085 53.8471C169.456 53.8471 161.619 61.725 161.619 71.415C161.619 81.105 169.451 88.9828 179.085 88.9828C188.719 88.9828 196.552 81.105 196.552 71.415V58.0297V44.6445C196.552 42.3317 194.693 40.4619 192.393 40.4619Z"
            fill="url(#paint3_linear_1_5803)" />
        <path
            d="M245.618 40.4618C240.575 40.4618 236.469 36.3324 236.469 31.2592V17.874C236.469 8.18842 228.637 0.306152 219.003 0.306152C209.373 0.306152 201.541 8.18398 201.541 17.874V31.2592C201.541 33.5676 203.404 35.4418 205.699 35.4418C207.994 35.4418 209.858 33.5676 209.858 31.2592V17.874C209.858 12.8008 213.963 8.67136 219.007 8.67136C224.051 8.67136 228.157 12.8008 228.157 17.874V31.2592C228.157 40.9448 235.989 48.827 245.623 48.827C247.918 48.827 249.781 46.9528 249.781 44.6444C249.781 42.336 247.913 40.4618 245.618 40.4618Z"
            fill="url(#paint4_linear_1_5803)" />
        <path
            d="M219.003 80.6083C213.959 80.6083 209.853 76.4789 209.853 71.4057C209.853 66.3325 213.959 62.2031 219.003 62.2031C222.549 62.2031 225.632 64.2457 227.148 67.2231H219.003C216.708 67.2231 214.844 69.0973 214.844 71.4057C214.844 73.7141 216.708 75.5883 219.003 75.5883H232.311C234.606 75.5883 236.469 73.7141 236.469 71.4057C236.469 61.7201 228.637 53.8379 219.003 53.8379C209.373 53.8379 201.541 61.7157 201.541 71.4057C201.541 81.0957 209.373 88.9736 219.003 88.9736C221.298 88.9736 223.161 87.0994 223.161 84.7909C223.161 83.6817 222.723 82.6178 221.943 81.8334C221.163 81.049 220.106 80.6083 219.003 80.6083Z"
            fill="url(#paint5_linear_1_5803)" />
        <path
            d="M292.688 68.7696C294.979 65.7966 296.345 62.0704 296.345 58.0251C296.345 55.7167 294.481 53.8425 292.186 53.8425C289.891 53.8425 288.028 55.7167 288.028 58.0251C288.028 63.0983 283.922 67.2277 278.878 67.2277H276.385V46.8818C276.385 44.5734 274.522 42.6992 272.227 42.6992C269.932 42.6992 268.068 44.5734 268.068 46.8818V84.7956C268.068 87.104 269.932 88.9782 272.227 88.9782C274.522 88.9782 276.385 87.104 276.385 84.7956V75.5929H285.535C290.578 75.5929 294.684 79.7224 294.684 84.7956C294.684 87.104 296.547 88.9782 298.842 88.9782C301.137 88.9782 303.001 87.104 303.001 84.7956C303.001 77.6709 298.763 71.5211 292.688 68.7696Z"
            fill="url(#paint6_linear_1_5803)" />
        <path
            d="M143.584 44.6443C143.584 69.2216 123.779 89.1421 99.3437 89.1421H68.6842C71.7281 87.4452 74.5782 85.4425 77.1949 83.1739C85.7055 75.8056 91.7537 65.6371 93.921 54.1039C95.5696 55.0612 97.4401 55.564 99.3437 55.5616C105.339 55.5616 110.198 50.6746 110.198 44.6443C110.198 38.6141 105.339 33.7226 99.3437 33.7226C97.4401 33.7202 95.5696 34.223 93.921 35.1803C90.6745 37.0678 88.4895 40.5947 88.4895 44.6399C88.4895 58.7385 81.97 71.3084 71.7942 79.461C66.953 83.3423 61.2881 86.2223 55.1033 87.7907C51.6277 88.6725 47.9935 89.1421 44.2448 89.1421C40.496 89.1421 36.8618 88.6725 33.3862 87.7907C14.202 82.9258 0 65.451 0 44.6443V20.0582L0.220255 19.6639C0.0748866 18.7733 0 17.8606 0 16.9301C0 7.66107 7.47104 0.142126 16.6909 0.142126C17.5999 0.141429 18.5074 0.215521 19.4044 0.363662C22.2105 0.824458 24.7831 1.98974 26.9372 3.67341C30.8621 6.74834 33.3818 11.5424 33.3818 16.9301V44.6443C33.3818 50.6746 38.245 55.5616 44.2404 55.5616C50.2357 55.5616 55.0989 50.6746 55.0989 44.6443V16.9301C55.0989 11.5424 57.623 6.74391 61.548 3.67341C63.6977 1.98531 66.2702 0.820027 69.0763 0.359232C69.9617 0.213018 70.8692 0.137695 71.7898 0.137695H99.3437C123.774 0.142126 143.584 20.0627 143.584 44.6443Z"
            fill="url(#paint7_linear_1_5803)" />
    </g>
    <defs>
        <linearGradient id="paint0_linear_1_5803" x1="6.79155" y1="17.8757" x2="297.376"
            y2="17.8757" gradientUnits="userSpaceOnUse">
            <stop stop-color="#0063DD" />
            <stop offset="0.5" stop-color="#008CFF" />
            <stop offset="1" stop-color="#0063DD" />
        </linearGradient>
        <linearGradient id="paint1_linear_1_5803" x1="6.79152" y1="17.8758" x2="297.376"
            y2="17.8758" gradientUnits="userSpaceOnUse">
            <stop stop-color="#0063DD" />
            <stop offset="0.5" stop-color="#008CFF" />
            <stop offset="1" stop-color="#0063DD" />
        </linearGradient>
        <linearGradient id="paint2_linear_1_5803" x1="6.79072" y1="71.4088" x2="297.375"
            y2="71.4088" gradientUnits="userSpaceOnUse">
            <stop stop-color="#0063DD" />
            <stop offset="0.5" stop-color="#008CFF" />
            <stop offset="1" stop-color="#0063DD" />
        </linearGradient>
        <linearGradient id="paint3_linear_1_5803" x1="6.79155" y1="64.7175" x2="297.376"
            y2="64.7175" gradientUnits="userSpaceOnUse">
            <stop stop-color="#0063DD" />
            <stop offset="0.5" stop-color="#008CFF" />
            <stop offset="1" stop-color="#0063DD" />
        </linearGradient>
        <linearGradient id="paint4_linear_1_5803" x1="6.78997" y1="24.5675" x2="297.375"
            y2="24.5675" gradientUnits="userSpaceOnUse">
            <stop stop-color="#0063DD" />
            <stop offset="0.5" stop-color="#008CFF" />
            <stop offset="1" stop-color="#0063DD" />
        </linearGradient>
        <linearGradient id="paint5_linear_1_5803" x1="6.79002" y1="71.4088" x2="297.375"
            y2="71.4088" gradientUnits="userSpaceOnUse">
            <stop stop-color="#0063DD" />
            <stop offset="0.5" stop-color="#008CFF" />
            <stop offset="1" stop-color="#0063DD" />
        </linearGradient>
        <linearGradient id="paint6_linear_1_5803" x1="6.79149" y1="65.8356" x2="297.376"
            y2="65.8356" gradientUnits="userSpaceOnUse">
            <stop stop-color="#0063DD" />
            <stop offset="0.5" stop-color="#008CFF" />
            <stop offset="1" stop-color="#0063DD" />
        </linearGradient>
        <linearGradient id="paint7_linear_1_5803" x1="6.79089" y1="44.6426" x2="297.376"
            y2="44.6426" gradientUnits="userSpaceOnUse">
            <stop stop-color="#0063DD" />
            <stop offset="0.5" stop-color="#008CFF" />
            <stop offset="1" stop-color="#0063DD" />
        </linearGradient>
        <clipPath id="clip0_1_5803">
            <rect width="303" height="89" fill="white" transform="translate(0 0.14209)" />
        </clipPath>
    </defs>
</svg>
    